<svg xmlns="http://www.w3.org/2000/svg" xmlns:xlink="http://www.w3.org/1999/xlink" viewBox="0 0 1920 1080"><defs><style>.cls-1{fill:#002b77;}.cls-2{isolation:isolate;}.cls-3{fill:url(#radial-gradient);}.cls-4{opacity:0.56;}.cls-5{mask:url(#mask);}.cls-6,.cls-8{fill:#fff;}.cls-13,.cls-6{opacity:0.32;}.cls-7{opacity:0.72;}.cls-8{mix-blend-mode:overlay;}.cls-10,.cls-100,.cls-101,.cls-102,.cls-103,.cls-104,.cls-105,.cls-106,.cls-107,.cls-108,.cls-109,.cls-11,.cls-110,.cls-111,.cls-112,.cls-113,.cls-114,.cls-115,.cls-116,.cls-117,.cls-118,.cls-119,.cls-12,.cls-120,.cls-121,.cls-122,.cls-123,.cls-124,.cls-125,.cls-126,.cls-127,.cls-128,.cls-129,.cls-130,.cls-131,.cls-132,.cls-133,.cls-134,.cls-135,.cls-136,.cls-137,.cls-138,.cls-139,.cls-14,.cls-140,.cls-141,.cls-142,.cls-143,.cls-144,.cls-145,.cls-146,.cls-147,.cls-148,.cls-149,.cls-15,.cls-150,.cls-151,.cls-152,.cls-153,.cls-154,.cls-155,.cls-156,.cls-157,.cls-158,.cls-159,.cls-16,.cls-160,.cls-161,.cls-162,.cls-163,.cls-164,.cls-165,.cls-166,.cls-167,.cls-168,.cls-169,.cls-17,.cls-170,.cls-171,.cls-172,.cls-173,.cls-174,.cls-18,.cls-19,.cls-20,.cls-21,.cls-22,.cls-23,.cls-24,.cls-25,.cls-26,.cls-27,.cls-28,.cls-29,.cls-30,.cls-31,.cls-32,.cls-33,.cls-34,.cls-35,.cls-36,.cls-37,.cls-38,.cls-39,.cls-40,.cls-41,.cls-42,.cls-43,.cls-44,.cls-45,.cls-46,.cls-47,.cls-48,.cls-49,.cls-50,.cls-51,.cls-52,.cls-53,.cls-54,.cls-55,.cls-56,.cls-57,.cls-58,.cls-59,.cls-60,.cls-61,.cls-62,.cls-63,.cls-64,.cls-65,.cls-66,.cls-67,.cls-68,.cls-69,.cls-70,.cls-71,.cls-72,.cls-73,.cls-74,.cls-75,.cls-76,.cls-77,.cls-78,.cls-79,.cls-80,.cls-81,.cls-82,.cls-83,.cls-84,.cls-85,.cls-86,.cls-87,.cls-88,.cls-89,.cls-9,.cls-90,.cls-91,.cls-92,.cls-93,.cls-94,.cls-95,.cls-96,.cls-97,.cls-98,.cls-99{mix-blend-mode:screen;}.cls-9{fill:url(#radial-gradient-2);}.cls-10{fill:url(#radial-gradient-3);}.cls-11{fill:url(#radial-gradient-4);}.cls-12{fill:url(#radial-gradient-5);}.cls-14{fill:url(#radial-gradient-6);}.cls-15{fill:url(#radial-gradient-7);}.cls-16{fill:url(#radial-gradient-8);}.cls-17{fill:url(#radial-gradient-9);}.cls-18{fill:url(#radial-gradient-10);}.cls-19{fill:url(#radial-gradient-11);}.cls-20{fill:url(#radial-gradient-12);}.cls-21{fill:url(#radial-gradient-13);}.cls-22{fill:url(#radial-gradient-14);}.cls-23{fill:url(#radial-gradient-15);}.cls-24{fill:url(#radial-gradient-16);}.cls-25{fill:url(#radial-gradient-17);}.cls-26{fill:url(#radial-gradient-18);}.cls-27{fill:url(#radial-gradient-19);}.cls-28{fill:url(#radial-gradient-20);}.cls-29{fill:url(#radial-gradient-21);}.cls-30{fill:url(#radial-gradient-22);}.cls-31{fill:url(#radial-gradient-23);}.cls-32{fill:url(#radial-gradient-24);}.cls-33{fill:url(#radial-gradient-25);}.cls-34{fill:url(#radial-gradient-26);}.cls-35{fill:url(#radial-gradient-27);}.cls-36{fill:url(#radial-gradient-28);}.cls-37{fill:url(#radial-gradient-29);}.cls-38{fill:url(#radial-gradient-30);}.cls-39{fill:url(#radial-gradient-31);}.cls-40{fill:url(#radial-gradient-32);}.cls-41{fill:url(#radial-gradient-33);}.cls-42{fill:url(#radial-gradient-34);}.cls-43{fill:url(#radial-gradient-35);}.cls-44{fill:url(#radial-gradient-36);}.cls-45{fill:url(#radial-gradient-37);}.cls-46{fill:url(#radial-gradient-38);}.cls-47{fill:url(#radial-gradient-39);}.cls-48{fill:url(#radial-gradient-40);}.cls-49{fill:url(#radial-gradient-41);}.cls-50{fill:url(#radial-gradient-42);}.cls-51{fill:url(#radial-gradient-43);}.cls-52{fill:url(#radial-gradient-44);}.cls-53{fill:url(#radial-gradient-45);}.cls-54{fill:url(#radial-gradient-46);}.cls-55{fill:url(#radial-gradient-47);}.cls-56{fill:url(#radial-gradient-48);}.cls-57{fill:url(#radial-gradient-49);}.cls-58{fill:url(#radial-gradient-50);}.cls-59{fill:url(#radial-gradient-51);}.cls-60{fill:url(#radial-gradient-52);}.cls-61{fill:url(#radial-gradient-53);}.cls-62{fill:url(#radial-gradient-54);}.cls-63{fill:url(#radial-gradient-55);}.cls-64{fill:url(#radial-gradient-56);}.cls-65{fill:url(#radial-gradient-57);}.cls-66{fill:url(#radial-gradient-58);}.cls-67{fill:url(#radial-gradient-59);}.cls-68{fill:url(#radial-gradient-60);}.cls-69{fill:url(#radial-gradient-61);}.cls-70{fill:url(#radial-gradient-62);}.cls-71{fill:url(#radial-gradient-63);}.cls-72{fill:url(#radial-gradient-64);}.cls-73{fill:url(#radial-gradient-65);}.cls-74{fill:url(#radial-gradient-66);}.cls-75{fill:url(#radial-gradient-67);}.cls-76{fill:url(#radial-gradient-68);}.cls-77{fill:url(#radial-gradient-69);}.cls-78{fill:url(#radial-gradient-70);}.cls-79{fill:url(#radial-gradient-71);}.cls-80{fill:url(#radial-gradient-72);}.cls-81{fill:url(#radial-gradient-73);}.cls-82{fill:url(#radial-gradient-74);}.cls-83{fill:url(#radial-gradient-75);}.cls-84{fill:url(#radial-gradient-76);}.cls-85{fill:url(#radial-gradient-77);}.cls-86{fill:url(#radial-gradient-78);}.cls-87{fill:url(#radial-gradient-79);}.cls-88{fill:url(#radial-gradient-80);}.cls-89{fill:url(#radial-gradient-81);}.cls-90{fill:url(#radial-gradient-82);}.cls-91{fill:url(#radial-gradient-83);}.cls-92{fill:url(#radial-gradient-84);}.cls-93{fill:url(#radial-gradient-85);}.cls-94{fill:url(#radial-gradient-86);}.cls-95{fill:url(#radial-gradient-87);}.cls-96{fill:url(#radial-gradient-88);}.cls-97{fill:url(#radial-gradient-89);}.cls-98{fill:url(#radial-gradient-90);}.cls-99{fill:url(#radial-gradient-91);}.cls-100{fill:url(#radial-gradient-92);}.cls-101{fill:url(#radial-gradient-93);}.cls-102{fill:url(#radial-gradient-94);}.cls-103{fill:url(#radial-gradient-95);}.cls-104{fill:url(#radial-gradient-96);}.cls-105{fill:url(#radial-gradient-97);}.cls-106{fill:url(#radial-gradient-98);}.cls-107{fill:url(#radial-gradient-99);}.cls-108{fill:url(#radial-gradient-100);}.cls-109{fill:url(#radial-gradient-101);}.cls-110{fill:url(#radial-gradient-102);}.cls-111{fill:url(#radial-gradient-103);}.cls-112{fill:url(#radial-gradient-104);}.cls-113{fill:url(#radial-gradient-105);}.cls-114{fill:url(#radial-gradient-106);}.cls-115{fill:url(#radial-gradient-107);}.cls-116{fill:url(#radial-gradient-108);}.cls-117{fill:url(#radial-gradient-109);}.cls-118{fill:url(#radial-gradient-110);}.cls-119{fill:url(#radial-gradient-111);}.cls-120{fill:url(#radial-gradient-112);}.cls-121{fill:url(#radial-gradient-113);}.cls-122{fill:url(#radial-gradient-114);}.cls-123{fill:url(#radial-gradient-115);}.cls-124{fill:url(#radial-gradient-116);}.cls-125{fill:url(#radial-gradient-117);}.cls-126{fill:url(#radial-gradient-118);}.cls-127{fill:url(#radial-gradient-119);}.cls-128{fill:url(#radial-gradient-120);}.cls-129{fill:url(#radial-gradient-121);}.cls-130{fill:url(#radial-gradient-122);}.cls-131{fill:url(#radial-gradient-123);}.cls-132{fill:url(#radial-gradient-124);}.cls-133{fill:url(#radial-gradient-125);}.cls-134{fill:url(#radial-gradient-126);}.cls-135{fill:url(#radial-gradient-127);}.cls-136{fill:url(#radial-gradient-128);}.cls-137{fill:url(#radial-gradient-129);}.cls-138{fill:url(#radial-gradient-130);}.cls-139{fill:url(#radial-gradient-131);}.cls-140{fill:url(#radial-gradient-132);}.cls-141{fill:url(#radial-gradient-133);}.cls-142{fill:url(#radial-gradient-134);}.cls-143{fill:url(#radial-gradient-135);}.cls-144{fill:url(#radial-gradient-136);}.cls-145{fill:url(#radial-gradient-137);}.cls-146{fill:url(#radial-gradient-138);}.cls-147{fill:url(#radial-gradient-139);}.cls-148{fill:url(#radial-gradient-140);}.cls-149{fill:url(#radial-gradient-141);}.cls-150{fill:url(#radial-gradient-142);}.cls-151{fill:url(#radial-gradient-143);}.cls-152{fill:url(#radial-gradient-144);}.cls-153{fill:url(#radial-gradient-145);}.cls-154{fill:url(#radial-gradient-146);}.cls-155{fill:url(#radial-gradient-147);}.cls-156{fill:url(#radial-gradient-148);}.cls-157{fill:url(#radial-gradient-149);}.cls-158{fill:url(#radial-gradient-150);}.cls-159{fill:url(#radial-gradient-151);}.cls-160{fill:url(#radial-gradient-152);}.cls-161{fill:url(#radial-gradient-153);}.cls-162{fill:url(#radial-gradient-154);}.cls-163{fill:url(#radial-gradient-155);}.cls-164{fill:url(#radial-gradient-156);}.cls-165{fill:url(#radial-gradient-157);}.cls-166{fill:url(#radial-gradient-158);}.cls-167{fill:url(#radial-gradient-159);}.cls-168{fill:url(#radial-gradient-160);}.cls-169{fill:url(#radial-gradient-161);}.cls-170{fill:url(#radial-gradient-162);}.cls-171{fill:url(#radial-gradient-163);}.cls-172{fill:url(#radial-gradient-164);}.cls-173{fill:url(#radial-gradient-165);}.cls-174{fill:url(#radial-gradient-166);}</style><radialGradient id="radial-gradient" cx="739.77" cy="114.07" r="937.51" gradientTransform="translate(0 -330.18) scale(1.33 1.5)" gradientUnits="userSpaceOnUse"><stop offset="0.12" stop-color="#164499"/><stop offset="0.58" stop-color="#1b397d"/><stop offset="1" stop-color="#202e5f"/></radialGradient><mask id="mask" x="-96.66" y="0" width="2113.31" height="1080" maskUnits="userSpaceOnUse"><rect class="cls-1" width="1920" height="1080"/></mask><radialGradient id="radial-gradient-2" cx="-4786.8" cy="1220.65" r="5.13" gradientTransform="translate(-3205.1 658.08) rotate(-166.79)" gradientUnits="userSpaceOnUse"><stop offset="0.18" stop-color="#68f2ff"/><stop offset="0.19" stop-color="#62eaf7"/><stop offset="0.19" stop-color="#51d5e3"/><stop offset="0.19" stop-color="#35b2c1"/><stop offset="0.2" stop-color="#108192"/><stop offset="0.2" stop-color="#0d7e8f"/><stop offset="0.25" stop-color="#0d7e8f"/><stop offset="0.3" stop-color="#0b6876"/><stop offset="0.4" stop-color="#074852"/><stop offset="0.5" stop-color="#052e34"/><stop offset="0.6" stop-color="#031a1d"/><stop offset="0.71" stop-color="#010b0d"/><stop offset="0.84" stop-color="#000303"/><stop offset="1"/></radialGradient><radialGradient id="radial-gradient-3" cx="-4822.22" cy="1365.46" r="9.28" xlink:href="#radial-gradient-2"/><radialGradient id="radial-gradient-4" cx="-4845.9" cy="1043.38" r="7.99" xlink:href="#radial-gradient-2"/><radialGradient id="radial-gradient-5" cx="-4754.81" cy="1375.68" r="8.99" xlink:href="#radial-gradient-2"/><radialGradient id="radial-gradient-6" cx="-4832.71" cy="1113.61" r="4.14" xlink:href="#radial-gradient-2"/><radialGradient id="radial-gradient-7" cx="-4735.95" cy="1367.93" r="5.18" xlink:href="#radial-gradient-2"/><radialGradient id="radial-gradient-8" cx="-4763.24" cy="1271.89" r="4.73" xlink:href="#radial-gradient-2"/><radialGradient id="radial-gradient-9" cx="-4585.32" cy="1240.41" r="6.43" xlink:href="#radial-gradient-2"/><radialGradient id="radial-gradient-10" cx="-4616.99" cy="1093.17" r="6.23" xlink:href="#radial-gradient-2"/><radialGradient id="radial-gradient-11" cx="-4670.19" cy="1420.75" r="5.69" xlink:href="#radial-gradient-2"/><radialGradient id="radial-gradient-12" cx="-4537.68" cy="1080.82" r="3.1" xlink:href="#radial-gradient-2"/><radialGradient id="radial-gradient-13" cx="-4559.27" cy="991.02" r="4.22" xlink:href="#radial-gradient-2"/><radialGradient id="radial-gradient-14" cx="-4726.74" cy="1195.69" r="4.86" xlink:href="#radial-gradient-2"/><radialGradient id="radial-gradient-15" cx="-4674.43" cy="1525.8" r="14.59" xlink:href="#radial-gradient-2"/><radialGradient id="radial-gradient-16" cx="-4537.22" cy="1212.68" r="4.19" xlink:href="#radial-gradient-2"/><radialGradient id="radial-gradient-17" cx="-4558.1" cy="1147.53" r="2.93" xlink:href="#radial-gradient-2"/><radialGradient id="radial-gradient-18" cx="-4604.68" cy="1509.1" r="9.44" xlink:href="#radial-gradient-2"/><radialGradient id="radial-gradient-19" cx="-4555.67" cy="1263.2" r="3.55" xlink:href="#radial-gradient-2"/><radialGradient id="radial-gradient-20" cx="-4223.19" cy="1091.99" r="9.54" xlink:href="#radial-gradient-2"/><radialGradient id="radial-gradient-21" cx="-4653.51" cy="1537.53" r="5.08" xlink:href="#radial-gradient-2"/><radialGradient id="radial-gradient-22" cx="-4505.56" cy="1216.56" r="3.55" xlink:href="#radial-gradient-2"/><radialGradient id="radial-gradient-23" cx="-4489.02" cy="1075.75" r="4.79" xlink:href="#radial-gradient-2"/><radialGradient id="radial-gradient-24" cx="-4475.48" cy="958.99" r="3.9" xlink:href="#radial-gradient-2"/><radialGradient id="radial-gradient-25" cx="-4559.7" cy="140.44" r="4.13" gradientTransform="translate(-3045.87 1400.56) rotate(173.47)" xlink:href="#radial-gradient-2"/><radialGradient id="radial-gradient-26" cx="-4635.79" cy="151.39" r="4.36" gradientTransform="translate(-3045.87 1400.56) rotate(173.47)" xlink:href="#radial-gradient-2"/><radialGradient id="radial-gradient-27" cx="-4521.04" cy="915.28" r="3.1" xlink:href="#radial-gradient-2"/><radialGradient id="radial-gradient-28" cx="-4510.63" cy="91.26" r="4.8" gradientTransform="translate(-3045.87 1400.56) rotate(173.47)" xlink:href="#radial-gradient-2"/><radialGradient id="radial-gradient-29" cx="-4491.43" cy="51.54" r="4.57" gradientTransform="translate(-3045.87 1400.56) rotate(173.47)" xlink:href="#radial-gradient-2"/><radialGradient id="radial-gradient-30" cx="-4368.68" cy="945.01" r="4.03" xlink:href="#radial-gradient-2"/><radialGradient id="radial-gradient-31" cx="-3380.01" cy="925.78" r="3.94" xlink:href="#radial-gradient-2"/><radialGradient id="radial-gradient-32" cx="-4493" cy="118.07" r="4.33" gradientTransform="translate(-3045.87 1400.56) rotate(173.47)" xlink:href="#radial-gradient-2"/><radialGradient id="radial-gradient-33" cx="-4357.74" cy="988.55" r="3.15" xlink:href="#radial-gradient-2"/><radialGradient id="radial-gradient-34" cx="-4389.62" cy="990.42" r="3.03" xlink:href="#radial-gradient-2"/><radialGradient id="radial-gradient-35" cx="-4487.8" cy="1034.39" r="4.15" xlink:href="#radial-gradient-2"/><radialGradient id="radial-gradient-36" cx="-4297.98" cy="1065.87" r="3.45" xlink:href="#radial-gradient-2"/><radialGradient id="radial-gradient-37" cx="-4379.19" cy="106.09" r="4.26" gradientTransform="translate(-3045.87 1400.56) rotate(173.47)" xlink:href="#radial-gradient-2"/><radialGradient id="radial-gradient-38" cx="-4064.49" cy="876.18" r="3.12" xlink:href="#radial-gradient-2"/><radialGradient id="radial-gradient-39" cx="-3759.8" cy="938.48" r="4.46" xlink:href="#radial-gradient-2"/><radialGradient id="radial-gradient-40" cx="-3687.22" cy="759.67" r="4.63" xlink:href="#radial-gradient-2"/><radialGradient id="radial-gradient-41" cx="-3740.07" cy="713.21" r="4.01" xlink:href="#radial-gradient-2"/><radialGradient id="radial-gradient-42" cx="-4684.78" cy="1362.82" r="3.34" xlink:href="#radial-gradient-2"/><radialGradient id="radial-gradient-43" cx="-1264.59" cy="-1838.03" r="3.74" gradientTransform="translate(-1984.85 760.42) rotate(125.78)" xlink:href="#radial-gradient-2"/><radialGradient id="radial-gradient-44" cx="-1388.69" cy="-1771.34" r="4.48" gradientTransform="translate(-1984.85 760.42) rotate(125.78)" xlink:href="#radial-gradient-2"/><radialGradient id="radial-gradient-45" cx="-1454.45" cy="-1748.31" r="3.43" gradientTransform="translate(-1984.85 760.42) rotate(125.78)" xlink:href="#radial-gradient-2"/><radialGradient id="radial-gradient-46" cx="-1334.48" cy="-1670.13" r="3.63" gradientTransform="translate(-1984.85 760.42) rotate(125.78)" xlink:href="#radial-gradient-2"/><radialGradient id="radial-gradient-47" cx="-1355.8" cy="-1630.81" r="3.3" gradientTransform="translate(-1984.85 760.42) rotate(125.78)" xlink:href="#radial-gradient-2"/><radialGradient id="radial-gradient-48" cx="-1378.59" cy="-1633.43" r="3.68" gradientTransform="translate(-1984.85 760.42) rotate(125.78)" xlink:href="#radial-gradient-2"/><radialGradient id="radial-gradient-49" cx="-4711.86" cy="1333.75" r="5.31" xlink:href="#radial-gradient-2"/><radialGradient id="radial-gradient-50" cx="-4637.45" cy="1112.92" r="7.89" xlink:href="#radial-gradient-2"/><radialGradient id="radial-gradient-51" cx="-4618.18" cy="1193.89" r="13.22" xlink:href="#radial-gradient-2"/><radialGradient id="radial-gradient-52" cx="-4717.65" cy="1275.84" r="20.91" xlink:href="#radial-gradient-2"/><radialGradient id="radial-gradient-53" cx="-4797.6" cy="1156.15" r="5.82" xlink:href="#radial-gradient-2"/><radialGradient id="radial-gradient-54" cx="-4721.23" cy="1395.89" r="10.33" xlink:href="#radial-gradient-2"/><radialGradient id="radial-gradient-55" cx="-4484.74" cy="1072.42" r="4.12" xlink:href="#radial-gradient-2"/><radialGradient id="radial-gradient-56" cx="-4557.61" cy="150.18" r="3.8" gradientTransform="translate(-3045.87 1400.56) rotate(173.47)" xlink:href="#radial-gradient-2"/><radialGradient id="radial-gradient-57" cx="-4523.43" cy="1185.24" r="3.94" xlink:href="#radial-gradient-2"/><radialGradient id="radial-gradient-58" cx="-4452.27" cy="953.87" r="3.39" xlink:href="#radial-gradient-2"/><radialGradient id="radial-gradient-59" cx="-4541.07" cy="1120.36" r="4.98" xlink:href="#radial-gradient-2"/><radialGradient id="radial-gradient-60" cx="-4541.05" cy="1057.94" r="3.45" xlink:href="#radial-gradient-2"/><radialGradient id="radial-gradient-61" cx="-4508.53" cy="939.67" r="5.22" xlink:href="#radial-gradient-2"/><radialGradient id="radial-gradient-62" cx="-3961.66" cy="882.31" r="3.67" xlink:href="#radial-gradient-2"/><radialGradient id="radial-gradient-63" cx="-1403.72" cy="-1764.9" r="11.2" gradientTransform="translate(-1984.85 760.42) rotate(125.78)" xlink:href="#radial-gradient-2"/><radialGradient id="radial-gradient-64" cx="-3619.61" cy="767.85" r="3.91" xlink:href="#radial-gradient-2"/><radialGradient id="radial-gradient-65" cx="-3941.76" cy="828.11" r="4.82" xlink:href="#radial-gradient-2"/><radialGradient id="radial-gradient-66" cx="-4177.25" cy="932.33" r="6.4" xlink:href="#radial-gradient-2"/><radialGradient id="radial-gradient-67" cx="-4378.19" cy="976.22" r="4.85" xlink:href="#radial-gradient-2"/><radialGradient id="radial-gradient-68" cx="-1497.32" cy="-1739.14" r="19.01" gradientTransform="translate(-1984.85 760.42) rotate(125.78)" xlink:href="#radial-gradient-2"/><radialGradient id="radial-gradient-69" cx="-4610.5" cy="1317.16" r="4.2" xlink:href="#radial-gradient-2"/><radialGradient id="radial-gradient-70" cx="-1360.44" cy="-1855.43" r="4.13" gradientTransform="translate(-1984.85 760.42) rotate(125.78)" xlink:href="#radial-gradient-2"/><radialGradient id="radial-gradient-71" cx="-3503.41" cy="772" r="8.46" xlink:href="#radial-gradient-2"/><radialGradient id="radial-gradient-72" cx="-4514.9" cy="118.65" r="5.3" gradientTransform="translate(-3045.87 1400.56) rotate(173.47)" xlink:href="#radial-gradient-2"/><radialGradient id="radial-gradient-73" cx="-4619.82" cy="132.24" r="4.58" gradientTransform="translate(-3045.87 1400.56) rotate(173.47)" xlink:href="#radial-gradient-2"/><radialGradient id="radial-gradient-74" cx="-4654.55" cy="79.17" r="5.31" gradientTransform="translate(-3045.87 1400.56) rotate(173.47)" xlink:href="#radial-gradient-2"/><radialGradient id="radial-gradient-75" cx="-3896.97" cy="2739.36" r="4.43" gradientTransform="translate(-3014.72 -16.98) rotate(-136.25)" gradientUnits="userSpaceOnUse"><stop offset="0.74" stop-color="#000001"/><stop offset="0.79" stop-color="#000507"/><stop offset="0.85" stop-color="#001318"/><stop offset="0.89" stop-color="#002027"/><stop offset="0.9" stop-color="#00262e"/><stop offset="0.95" stop-color="#01515d"/><stop offset="1"/></radialGradient><radialGradient id="radial-gradient-76" cx="-3803.03" cy="2860.9" r="5.83" xlink:href="#radial-gradient-75"/><radialGradient id="radial-gradient-77" cx="-3727.63" cy="2625.77" r="34.23" xlink:href="#radial-gradient-75"/><radialGradient id="radial-gradient-78" cx="-4227.36" cy="1789.22" r="5.98" gradientTransform="translate(-3095.41 701.07) rotate(-156)" xlink:href="#radial-gradient-75"/><radialGradient id="radial-gradient-79" cx="-3771.43" cy="2726.54" r="8.86" xlink:href="#radial-gradient-75"/><radialGradient id="radial-gradient-80" cx="-3712.1" cy="2903.58" r="12.98" xlink:href="#radial-gradient-75"/><radialGradient id="radial-gradient-81" cx="-3740.32" cy="2485.93" r="7.62" xlink:href="#radial-gradient-75"/><radialGradient id="radial-gradient-82" cx="-4179.64" cy="1741.66" r="10.88" gradientTransform="translate(-3095.41 701.07) rotate(-156)" xlink:href="#radial-gradient-75"/><radialGradient id="radial-gradient-83" cx="-3656.77" cy="2642.65" r="11.01" xlink:href="#radial-gradient-75"/><radialGradient id="radial-gradient-84" cx="-3577.6" cy="2800.65" r="8.58" xlink:href="#radial-gradient-75"/><radialGradient id="radial-gradient-85" cx="-3009.73" cy="1780.61" r="18.19" xlink:href="#radial-gradient-75"/><radialGradient id="radial-gradient-86" cx="-3589.91" cy="2877.5" r="16.02" xlink:href="#radial-gradient-75"/><radialGradient id="radial-gradient-87" cx="-3762.08" cy="2721.94" r="15.46" xlink:href="#radial-gradient-75"/><radialGradient id="radial-gradient-88" cx="-3588.49" cy="2541.63" r="19.49" xlink:href="#radial-gradient-75"/><radialGradient id="radial-gradient-89" cx="-3571.77" cy="2661.38" r="18.06" xlink:href="#radial-gradient-75"/><radialGradient id="radial-gradient-90" cx="-3460.42" cy="2312.59" r="8.47" xlink:href="#radial-gradient-75"/><radialGradient id="radial-gradient-91" cx="-2464.35" cy="-1369.25" r="5.5" gradientTransform="matrix(-0.92, 0.4, -0.4, -0.92, -2534.58, 326.02)" xlink:href="#radial-gradient-75"/><radialGradient id="radial-gradient-92" cx="-2814.57" cy="1884.2" r="5.47" xlink:href="#radial-gradient-75"/><radialGradient id="radial-gradient-93" cx="-3666.89" cy="2466.23" r="20.96" xlink:href="#radial-gradient-75"/><radialGradient id="radial-gradient-94" cx="-3680.02" cy="2591.93" r="17.81" xlink:href="#radial-gradient-75"/><radialGradient id="radial-gradient-95" cx="-2768.89" cy="1927.9" r="12.87" xlink:href="#radial-gradient-75"/><radialGradient id="radial-gradient-96" cx="-3175.43" cy="1831.35" r="3.95" xlink:href="#radial-gradient-75"/><radialGradient id="radial-gradient-97" cx="-3019.97" cy="1905.64" r="9.48" xlink:href="#radial-gradient-75"/><radialGradient id="radial-gradient-98" cx="-3249.83" cy="2552.09" r="6.81" xlink:href="#radial-gradient-75"/><radialGradient id="radial-gradient-99" cx="-3146.9" cy="2374.57" r="7.3" xlink:href="#radial-gradient-75"/><radialGradient id="radial-gradient-100" cx="-2480.06" cy="-1315.48" r="11.01" gradientTransform="matrix(-0.92, 0.4, -0.4, -0.92, -2534.58, 326.02)" xlink:href="#radial-gradient-75"/><radialGradient id="radial-gradient-101" cx="-2401.67" cy="-1429.44" r="20.92" gradientTransform="matrix(-0.92, 0.4, -0.4, -0.92, -2534.58, 326.02)" xlink:href="#radial-gradient-75"/><radialGradient id="radial-gradient-102" cx="-2388.6" cy="-1366.75" r="5.89" gradientTransform="matrix(-0.92, 0.4, -0.4, -0.92, -2534.58, 326.02)" xlink:href="#radial-gradient-75"/><radialGradient id="radial-gradient-103" cx="-2431.52" cy="-1351.7" r="18.73" gradientTransform="matrix(-0.92, 0.4, -0.4, -0.92, -2534.58, 326.02)" xlink:href="#radial-gradient-75"/><radialGradient id="radial-gradient-104" cx="-2376.2" cy="-1413.12" r="3.47" gradientTransform="matrix(-0.92, 0.4, -0.4, -0.92, -2534.58, 326.02)" xlink:href="#radial-gradient-75"/><radialGradient id="radial-gradient-105" cx="-2953.51" cy="2017.79" r="28.92" xlink:href="#radial-gradient-75"/><radialGradient id="radial-gradient-106" cx="-4632.29" cy="1112.16" r="10.49" gradientTransform="translate(-3205.1 658.08) rotate(-166.79)" gradientUnits="userSpaceOnUse"><stop offset="0.35" stop-color="#000001"/><stop offset="0.42" stop-color="#000507"/><stop offset="0.5" stop-color="#001318"/><stop offset="0.56" stop-color="#002027"/><stop offset="0.64" stop-color="#01515d"/><stop offset="0.66" stop-color="#014650"/><stop offset="0.72" stop-color="#012d33"/><stop offset="0.77" stop-color="#00191d"/><stop offset="0.83" stop-color="#000b0c"/><stop offset="0.9" stop-color="#000303"/><stop offset="0.99"/></radialGradient><radialGradient id="radial-gradient-107" cx="-4630.97" cy="1265.12" r="7.91" xlink:href="#radial-gradient-106"/><radialGradient id="radial-gradient-108" cx="-4667.57" cy="1430.03" r="16.97" xlink:href="#radial-gradient-106"/><radialGradient id="radial-gradient-109" cx="-4560.25" cy="1154.72" r="10.25" xlink:href="#radial-gradient-106"/><radialGradient id="radial-gradient-110" cx="-4540.99" cy="1083.7" r="9.99" xlink:href="#radial-gradient-106"/><radialGradient id="radial-gradient-111" cx="-4573.93" cy="1265.45" r="2.76" xlink:href="#radial-gradient-106"/><radialGradient id="radial-gradient-112" cx="-4499.18" cy="991.78" r="25.05" xlink:href="#radial-gradient-106"/><radialGradient id="radial-gradient-113" cx="-4610.88" cy="1007.96" r="3.28" xlink:href="#radial-gradient-106"/><radialGradient id="radial-gradient-114" cx="-4541.11" cy="1236.1" r="3.79" xlink:href="#radial-gradient-106"/><radialGradient id="radial-gradient-115" cx="-4458.71" cy="1250.39" r="2.86" xlink:href="#radial-gradient-106"/><radialGradient id="radial-gradient-116" cx="-4469.16" cy="1107.88" r="6.18" xlink:href="#radial-gradient-106"/><radialGradient id="radial-gradient-117" cx="-4460.43" cy="982.86" r="3.82" xlink:href="#radial-gradient-106"/><radialGradient id="radial-gradient-118" cx="-4308.96" cy="986.81" r="6.77" xlink:href="#radial-gradient-106"/><radialGradient id="radial-gradient-119" cx="-4525.2" cy="1023.13" r="7.43" xlink:href="#radial-gradient-106"/><radialGradient id="radial-gradient-120" cx="-4548.41" cy="953.2" r="4.28" xlink:href="#radial-gradient-106"/><radialGradient id="radial-gradient-121" cx="-4560.13" cy="1021.13" r="6.85" xlink:href="#radial-gradient-106"/><radialGradient id="radial-gradient-122" cx="-4419.63" cy="1161.7" r="4.58" xlink:href="#radial-gradient-106"/><radialGradient id="radial-gradient-123" cx="-4380.12" cy="988.54" r="10.82" xlink:href="#radial-gradient-106"/><radialGradient id="radial-gradient-124" cx="-3903.8" cy="776.48" r="8.67" xlink:href="#radial-gradient-106"/><radialGradient id="radial-gradient-125" cx="-3505.94" cy="825.69" r="4.57" xlink:href="#radial-gradient-106"/><radialGradient id="radial-gradient-126" cx="-1443.9" cy="-1759.62" r="4.08" gradientTransform="translate(-1984.85 760.42) rotate(125.78)" xlink:href="#radial-gradient-106"/><radialGradient id="radial-gradient-127" cx="-3456.29" cy="870.89" r="10" xlink:href="#radial-gradient-106"/><radialGradient id="radial-gradient-128" cx="-4464.79" cy="928.11" r="3.88" xlink:href="#radial-gradient-106"/><radialGradient id="radial-gradient-129" cx="-4424.05" cy="923.44" r="3.25" xlink:href="#radial-gradient-106"/><radialGradient id="radial-gradient-130" cx="-3618.94" cy="811.34" r="6.24" xlink:href="#radial-gradient-106"/><radialGradient id="radial-gradient-131" cx="-1299.18" cy="-1841.63" r="3.51" gradientTransform="translate(-1984.85 760.42) rotate(125.78)" xlink:href="#radial-gradient-106"/><radialGradient id="radial-gradient-132" cx="-1390.98" cy="-1644.62" r="5.79" gradientTransform="translate(-1984.85 760.42) rotate(125.78)" xlink:href="#radial-gradient-106"/><radialGradient id="radial-gradient-133" cx="-1315.32" cy="-1814.45" r="4.52" gradientTransform="translate(-1984.85 760.42) rotate(125.78)" xlink:href="#radial-gradient-106"/><radialGradient id="radial-gradient-134" cx="-3099.62" cy="707.91" r="7.1" gradientTransform="translate(-2776.96 -370.71) rotate(-150.06)" xlink:href="#radial-gradient-106"/><radialGradient id="radial-gradient-135" cx="-653.51" cy="2882.71" r="6.21" gradientTransform="translate(-2464.72 -507.98) rotate(-82.62)" xlink:href="#radial-gradient-106"/><radialGradient id="radial-gradient-136" cx="-768.56" cy="3870.57" r="3.52" gradientTransform="translate(-2464.72 -507.98) rotate(-82.62)" xlink:href="#radial-gradient-106"/><radialGradient id="radial-gradient-137" cx="-673.99" cy="3825.78" r="8.22" gradientTransform="translate(-2464.72 -507.98) rotate(-82.62)" xlink:href="#radial-gradient-106"/><radialGradient id="radial-gradient-138" cx="-714.61" cy="3455.14" r="10.92" gradientTransform="translate(-2464.72 -507.98) rotate(-82.62)" xlink:href="#radial-gradient-106"/><radialGradient id="radial-gradient-139" cx="-769.59" cy="3908.52" r="3.57" gradientTransform="translate(-2464.72 -507.98) rotate(-82.62)" xlink:href="#radial-gradient-106"/><radialGradient id="radial-gradient-140" cx="-1608.66" cy="3837.96" r="9.59" gradientTransform="translate(-2743.62 53.92) rotate(-102.37)" xlink:href="#radial-gradient-106"/><radialGradient id="radial-gradient-141" cx="-3108.31" cy="638.8" r="3.1" gradientTransform="translate(-2776.96 -370.71) rotate(-150.06)" xlink:href="#radial-gradient-106"/><radialGradient id="radial-gradient-142" cx="-691.99" cy="3904.06" r="3.66" gradientTransform="translate(-2464.72 -507.98) rotate(-82.62)" xlink:href="#radial-gradient-106"/><radialGradient id="radial-gradient-143" cx="-499.5" cy="3880.38" r="3.8" gradientTransform="translate(-2464.72 -507.98) rotate(-82.62)" xlink:href="#radial-gradient-106"/><radialGradient id="radial-gradient-144" cx="-580.31" cy="2948.46" r="6.34" gradientTransform="translate(-2464.72 -507.98) rotate(-82.62)" xlink:href="#radial-gradient-106"/><radialGradient id="radial-gradient-145" cx="-575.47" cy="2855.82" r="4.35" gradientTransform="translate(-2464.72 -507.98) rotate(-82.62)" xlink:href="#radial-gradient-106"/><radialGradient id="radial-gradient-146" cx="-3012.7" cy="704.78" r="6.51" gradientTransform="translate(-2776.96 -370.71) rotate(-150.06)" xlink:href="#radial-gradient-106"/><radialGradient id="radial-gradient-147" cx="-710.51" cy="3134.4" r="7.6" gradientTransform="translate(-2464.72 -507.98) rotate(-82.62)" xlink:href="#radial-gradient-106"/><radialGradient id="radial-gradient-148" cx="-833.88" cy="3035.17" r="4.22" gradientTransform="translate(-2464.72 -507.98) rotate(-82.62)" xlink:href="#radial-gradient-106"/><radialGradient id="radial-gradient-149" cx="-838.82" cy="3196.97" r="9.28" gradientTransform="translate(-2464.72 -507.98) rotate(-82.62)" xlink:href="#radial-gradient-106"/><radialGradient id="radial-gradient-150" cx="-487.51" cy="2982.63" r="5.81" gradientTransform="translate(-2464.72 -507.98) rotate(-82.62)" xlink:href="#radial-gradient-106"/><radialGradient id="radial-gradient-151" cx="-3007.43" cy="786.27" r="10.42" gradientTransform="translate(-2776.96 -370.71) rotate(-150.06)" xlink:href="#radial-gradient-106"/><radialGradient id="radial-gradient-152" cx="-3037.58" cy="645.71" r="7.28" gradientTransform="translate(-2776.96 -370.71) rotate(-150.06)" xlink:href="#radial-gradient-106"/><radialGradient id="radial-gradient-153" cx="-3034.66" cy="677.7" r="5.06" gradientTransform="translate(-2776.96 -370.71) rotate(-150.06)" xlink:href="#radial-gradient-106"/><radialGradient id="radial-gradient-154" cx="-3073.54" cy="668.71" r="3.25" gradientTransform="translate(-2776.96 -370.71) rotate(-150.06)" xlink:href="#radial-gradient-106"/><radialGradient id="radial-gradient-155" cx="-442.37" cy="4014.85" r="10.27" gradientTransform="translate(-2464.72 -507.98) rotate(-82.62)" xlink:href="#radial-gradient-106"/><radialGradient id="radial-gradient-156" cx="-3089.1" cy="720.07" r="4.05" gradientTransform="translate(-2776.96 -370.71) rotate(-150.06)" xlink:href="#radial-gradient-106"/><radialGradient id="radial-gradient-157" cx="-3067.96" cy="708.47" r="3.15" gradientTransform="translate(-2776.96 -370.71) rotate(-150.06)" xlink:href="#radial-gradient-106"/><radialGradient id="radial-gradient-158" cx="-3077.86" cy="651.59" r="7.32" gradientTransform="translate(-2776.96 -370.71) rotate(-150.06)" xlink:href="#radial-gradient-106"/><radialGradient id="radial-gradient-159" cx="-3026.22" cy="643.03" r="5.14" gradientTransform="translate(-2776.96 -370.71) rotate(-150.06)" xlink:href="#radial-gradient-106"/><radialGradient id="radial-gradient-160" cx="-2854.57" cy="692.97" r="5.5" gradientTransform="translate(-2776.96 -370.71) rotate(-150.06)" xlink:href="#radial-gradient-106"/><radialGradient id="radial-gradient-161" cx="-2973.6" cy="770.28" r="2.65" gradientTransform="translate(-2776.96 -370.71) rotate(-150.06)" xlink:href="#radial-gradient-106"/><radialGradient id="radial-gradient-162" cx="-3042.48" cy="667" r="4.86" gradientTransform="translate(-2776.96 -370.71) rotate(-150.06)" xlink:href="#radial-gradient-106"/><radialGradient id="radial-gradient-163" cx="-2972.65" cy="677.74" r="4.46" gradientTransform="translate(-2776.96 -370.71) rotate(-150.06)" xlink:href="#radial-gradient-106"/><radialGradient id="radial-gradient-164" cx="-3021.37" cy="635.12" r="8.93" gradientTransform="translate(-2776.96 -370.71) rotate(-150.06)" xlink:href="#radial-gradient-106"/><radialGradient id="radial-gradient-165" cx="-3069.21" cy="621.08" r="14.66" gradientTransform="translate(-2776.96 -370.71) rotate(-150.06)" xlink:href="#radial-gradient-106"/><radialGradient id="radial-gradient-166" cx="-2929.32" cy="621.26" r="12.01" gradientTransform="translate(-2776.96 -370.71) rotate(-150.06)" xlink:href="#radial-gradient-106"/></defs><title>Background_1</title><g class="cls-2"><g id="Layer_1" data-name="Layer 1"><rect class="cls-3" width="1920" height="1080"/><g class="cls-4"><rect class="cls-1" width="1920" height="1080"/></g><g class="cls-5"><path class="cls-6" d="M2013.45,708.57l-21.29-224.85a3.24,3.24,0,1,0-3.88-3.17,3.16,3.16,0,0,0,.28,1.3l-86,49.48a3.22,3.22,0,0,0-5.82,1.59l-270.36,2.67a3.22,3.22,0,0,0-6.23-.71l-298-71.89a3,3,0,0,0,0-.42,3.24,3.24,0,0,0-6.47-.09L1117.62,477.9a3.24,3.24,0,0,0-6.42.59,2.84,2.84,0,0,0,.07.66l-88.45,28.15a3.23,3.23,0,0,0-6.14.69L797.1,489.37a3.24,3.24,0,0,0-6.47.07c0,.12,0,.24,0,.36l-175.93,39a3.23,3.23,0,0,0-6.23.37l-56.31-5.52a3.23,3.23,0,0,0-6.44-.25l-152.89,3.28a3.23,3.23,0,1,0-5.85,2.25L212.69,679.34a3.25,3.25,0,1,0,1,2.73l70.25.63a3.22,3.22,0,0,0,6.4.15l62.28,2.49a3.23,3.23,0,0,0,6.37.49L574.6,711.09v0a3.23,3.23,0,0,0,6.24,1.18L960.93,816.65a3,3,0,0,0-.06.52,3.24,3.24,0,0,0,6.39.73l205.35,24.9v0a3.24,3.24,0,1,0,6.47,0,3.16,3.16,0,0,0-.19-1.06l210.92-99.48a3.21,3.21,0,0,0,5.69-.34l237.88,79.74a3.23,3.23,0,1,0,6.36,1.11l260,5.58a3.23,3.23,0,1,0,5.67-2.36l106.09-111.66a3.23,3.23,0,1,0,2-5.8ZM213.14,679.86,387.47,529.43l.16.13-99,150a3.2,3.2,0,0,0-4.68,2.5l-70.26-.63A3.2,3.2,0,0,0,213.14,679.86Zm751,134.08a4.05,4.05,0,0,0-.7.07l-40.54-121.1-9.19-27.43a3.23,3.23,0,0,0,1.9-2.94,3.56,3.56,0,0,0-.05-.47l162-42.18a3.2,3.2,0,0,0,1.1,1.46L965.44,814.23A3.12,3.12,0,0,0,964.11,813.94Zm801.22-203.52-74.46,21.48a3.23,3.23,0,0,0-3-2,3.14,3.14,0,0,0-1.49.38l-61.16-91.83a2.93,2.93,0,0,0,.65-.71l139.63,71a3.14,3.14,0,0,0-.22,1.15A3.43,3.43,0,0,0,1765.33,610.42ZM1638.52,819.86l128.59-207.1a3.18,3.18,0,0,0,1.4.34,3.23,3.23,0,0,0,2.63-1.36l46.71,26.42,60.19,34a3.27,3.27,0,0,0-.27,1.29,3.18,3.18,0,0,0,.32,1.38l-239,145.57A3.18,3.18,0,0,0,1638.52,819.86Zm258.81-284.72a3.25,3.25,0,0,0,1.83,1.23L1881.1,670.26H1881a3.23,3.23,0,0,0-2.63,1.36l-106.9-60.46a3.27,3.27,0,0,0,.27-1.29,3.23,3.23,0,0,0-.29-1.32L1864.93,554Zm-212.69,97.91v.07a3.33,3.33,0,0,0,.1.78L1395.46,739.2a3.23,3.23,0,0,0-2.5-1.78l1.77-97.93.74-40.79a3.21,3.21,0,0,0,2.85-2.46l189,24.29ZM580.87,710,819,593.79a3.21,3.21,0,0,0,5.06.52l85.53,66.53a3.22,3.22,0,0,0-.5,1.7.51.51,0,0,0,0,.13L581,710.32C580.94,710.22,580.9,710.12,580.87,710Zm497.87-93.92a3.24,3.24,0,0,0-1.39,2.65,3.71,3.71,0,0,0,.05.48l-162,42.17a3.24,3.24,0,0,0-.9-1.29l26.06-37.32,77.79-111.37a3.12,3.12,0,0,0,1.55.42,3.3,3.3,0,0,0,1.26-.26l.82,1.49ZM1017,510.16a3.12,3.12,0,0,0,.71.87L913.9,659.72a3.18,3.18,0,0,0-1.56-.41,3.24,3.24,0,0,0-2.33,1l-85.52-66.53a3.16,3.16,0,0,0,.49-1.7,3.23,3.23,0,0,0-.15-.93l40-16.84ZM611.43,533a2.3,2.3,0,0,0,.26,0,3.23,3.23,0,0,0,3-2l203.9,60.43a3,3,0,0,0-.06.59,3.3,3.3,0,0,0,.2,1.1L593.92,702.89l-13.35,6.52a3.22,3.22,0,0,0-1.81-1.38L598.4,602.85Zm472.34,85.16a3.22,3.22,0,0,0-2.1-2.46l32.35-134a2.85,2.85,0,0,0,.42,0,3.22,3.22,0,0,0,2.82-1.69l274.83,114.53a3.12,3.12,0,0,0-.13.82l-4.3.32Zm603.59,18.13a2.94,2.94,0,0,0,.51.05,3.24,3.24,0,0,0,3.24-3.24,2.6,2.6,0,0,0-.06-.56l11.81-3.41,62.66-18.07a3.14,3.14,0,0,0,1,1.32L1637.94,819.49l-.23-.1,46.4-171.09Zm196.83,37.75a3.68,3.68,0,0,0,.06-.57,3.25,3.25,0,0,0-2.47-3.14l13.75-102,4.3-31.91h.1a3.32,3.32,0,0,0,1.43-.35l74.73,117.59,35.32,55.57a3.32,3.32,0,0,0-1,1.3l-58.32-16.87ZM1897,534.55l-85.39,49.8L1771.11,608a3.21,3.21,0,0,0-5.31.15l-139.62-71a3.41,3.41,0,0,0,.19-.84l270.36-2.68A3.24,3.24,0,0,0,1897,534.55Zm-276.84,2.56a3.24,3.24,0,0,0,3,2.09,3.18,3.18,0,0,0,1.5-.38l61.15,91.82a3.28,3.28,0,0,0-1.08,1.74l-232.54-29.9-53.78-6.92s0,0,0-.07a3.91,3.91,0,0,0-.05-.48l101.08-26.39ZM1319,465.8a3.16,3.16,0,0,0,1.3-.28L1355.49,527l37.8,65.92a3.16,3.16,0,0,0-.93,1.06L1117.53,479.41a3.2,3.2,0,0,0,.14-.83l198.11-15.43A3.23,3.23,0,0,0,1319,465.8Zm-302.18,43.73-192.21,81a3.23,3.23,0,0,0-2.82-1.68,4.36,4.36,0,0,0-.52,0L795,492.45a3.23,3.23,0,0,0,2-2.4l219.58,18.62A3.1,3.1,0,0,0,1016.78,509.53Zm-406,23.37-32.67,175-.25,0-.15,0-27.9-181.13a3.24,3.24,0,0,0,2.35-2.47l56.31,5.53A3.22,3.22,0,0,0,610.76,532.9Zm-64.48-7.45-144.78,121L358.08,682.8a3.17,3.17,0,0,0-1.25-.74l32.51-151.79a1.86,1.86,0,0,0,.34,0,3.23,3.23,0,0,0,3.21-3l152.88-3.28A3,3,0,0,0,546.28,525.45ZM289.19,679.9l99-150a2.76,2.76,0,0,0,.47.2L370,617.49l-13.8,64.43c-.12,0-.23,0-.34,0a3.23,3.23,0,0,0-3.19,2.77l-62.29-2.48A3.21,3.21,0,0,0,289.19,679.9Zm794.51-60.3a3.57,3.57,0,0,0,.12-.74l125.08-9.25L1392,596.07a3.24,3.24,0,0,0,2.78,2.62l-2.5,138.72a3.22,3.22,0,0,0-2.58,1.73l-294.45-115ZM1639.46,821l54.84-33.4,184.15-112.17a3.22,3.22,0,0,0,2.56,1.28h.11l21,148.27a3.21,3.21,0,0,0-2.41,2.72l-260-5.58A3.14,3.14,0,0,0,1639.46,821Zm263.45,3.86h-.11l-21-148.27a3.24,3.24,0,0,0,2.21-1.91l126.23,36.53a3.43,3.43,0,0,0-.06.57,3.18,3.18,0,0,0,.78,2.08L1904.87,825.56A3.19,3.19,0,0,0,1902.91,824.88Zm86-342.44a3.24,3.24,0,0,0,2.58,1.34l21.3,224.85a3.12,3.12,0,0,0-.79.29L1901.93,535.75a3.2,3.2,0,0,0,1-3.83ZM1620,535.55a2.85,2.85,0,0,0,0,.42,3.88,3.88,0,0,0,0,.48l-114.46,29.88-107.31,28a3.23,3.23,0,0,0-3-2.1,3.33,3.33,0,0,0-1.3.28l-73-127.35a3.19,3.19,0,0,0,1.15-1.53Zm-508.49-55.76a3.21,3.21,0,0,0,1.87,1.74l-32.34,134a3,3,0,0,0-.42,0,3.29,3.29,0,0,0-1.26.25l-57.62-104.52a3.23,3.23,0,0,0,1.39-2.65,3.41,3.41,0,0,0-.07-.65ZM790.82,490.47a3.22,3.22,0,0,0,3,2.21,4,4,0,0,0,.51-.05l25.18,92.69,1,3.74a3.2,3.2,0,0,0-1.82,1.77l-203.9-60.44a2.78,2.78,0,0,0,.06-.58c0-.13,0-.24,0-.36ZM359.06,685.16v0a3.24,3.24,0,0,0-.55-1.8L546.72,526a3.19,3.19,0,0,0,2.25.92l.15,0L555.76,570,577,708a3.24,3.24,0,0,0-2.33,2.41Zm222,26.48a3,3,0,0,0,.05-.52s0-.08,0-.12l328.16-47.66a3.22,3.22,0,0,0,3.12,2.44,3.27,3.27,0,0,0,.7-.08l49.73,148.53A3.27,3.27,0,0,0,961.1,816ZM967.34,817.22s0,0,0-.05a3.24,3.24,0,0,0-1.32-2.59l5.31-9.05L1079.26,621.7a3.12,3.12,0,0,0,2.27.14L1174.28,840a3.2,3.2,0,0,0-1.58,2.09Zm211.26,23.95a3.23,3.23,0,0,0-2.76-1.56,3.3,3.3,0,0,0-.94.15l-92.74-218.19a3.24,3.24,0,0,0,1.29-1.33l45,17.59,261,101.94a3.35,3.35,0,0,0-.12.85,3.16,3.16,0,0,0,.19,1.06Zm217.12-99.85a3.27,3.27,0,0,0,.08-.7,2.88,2.88,0,0,0-.11-.78L1685,634.54a3.19,3.19,0,0,0,1.72,1.59l-49.65,183.08a4.2,4.2,0,0,0-.51-.05,3.24,3.24,0,0,0-2.94,1.89Z"/><path class="cls-6" d="M1907.13,691.63,1883.5,442.18a3.59,3.59,0,1,0-4.3-3.52,3.49,3.49,0,0,0,.31,1.45L1784.08,495a3.57,3.57,0,0,0-6.46,1.76l-299.93,3a3.57,3.57,0,0,0-6.92-.79l-330.56-79.76a3.41,3.41,0,0,0,0-.46,3.59,3.59,0,0,0-7.18-.1L913.3,435.73a3.59,3.59,0,0,0-7.12.66,4.28,4.28,0,0,0,.07.72l-98.12,31.23a3.58,3.58,0,0,0-6.8.77L557.72,448.46a3.59,3.59,0,0,0-7.17.07,2.58,2.58,0,0,0,0,.4L355.42,492.18a3.58,3.58,0,0,0-6.91.41L286,486.46a3.58,3.58,0,0,0-7.15-.28l-169.61,3.64a3.58,3.58,0,0,0-7.14.46,3.51,3.51,0,0,0,.65,2L-90.61,659.21a3.6,3.6,0,0,0-2.45-1,3.6,3.6,0,0,0-3.6,3.59,3.6,3.6,0,0,0,3.6,3.59,3.58,3.58,0,0,0,3.55-3.18l77.93.7A3.58,3.58,0,0,0-8,666.17a3.59,3.59,0,0,0,3.54-3.07l69.1,2.75a3.58,3.58,0,0,0,7.06.56l239.21,28v0a3.59,3.59,0,0,0,6.93,1.31L739.47,811.53a3.68,3.68,0,0,0-.06.58,3.59,3.59,0,0,0,7.08.81l227.82,27.62s0,0,0,.05a3.6,3.6,0,0,0,7.19,0,3.52,3.52,0,0,0-.22-1.17l234-110.38a3.57,3.57,0,0,0,6.32-.37l263.9,88.46a4,4,0,0,0-.09.78,3.58,3.58,0,0,0,7.14.45l288.4,6.2a3.58,3.58,0,0,0,7.15-.3,3.54,3.54,0,0,0-.87-2.32l117.7-123.88a3.59,3.59,0,1,0,2.22-6.43ZM-90.12,659.78,103.29,492.89l.17.15L-6.38,659.4A3.62,3.62,0,0,0-8,659a3.57,3.57,0,0,0-3.55,3.18l-77.94-.69A3.56,3.56,0,0,0-90.12,659.78ZM909.31,439.93a3.41,3.41,0,0,0,.46.05,3.59,3.59,0,0,0,3.14-1.88l262.2,109.27,42.69,17.79a3.4,3.4,0,0,0-.15.91l-16.11,1.19L875.75,591.35a3.59,3.59,0,0,0-2.33-2.73l1.91-7.9Zm722.55,142.82-82.61,23.83a3.56,3.56,0,0,0-3.32-2.24,3.51,3.51,0,0,0-1.65.42l-67.85-101.87a3.6,3.6,0,0,0,.72-.79L1632,580.84a3.64,3.64,0,0,0-.24,1.28A4.34,4.34,0,0,0,1631.86,582.75Zm-157.72-79a3.47,3.47,0,0,0,1.66-.43l67.85,101.87a3.54,3.54,0,0,0-1.2,1.92l-317.64-40.84s0,0,0-.08a3.07,3.07,0,0,0-.06-.53l246-64.24A3.6,3.6,0,0,0,1474.14,503.74Zm306.19-3.15L1777.44,522l-17.15,127.15h-.1a3.57,3.57,0,0,0-2.91,1.51l-118.6-67.08a3.59,3.59,0,0,0,.3-1.43,3.63,3.63,0,0,0-.32-1.47l139.63-81.42A3.57,3.57,0,0,0,1780.33,500.59Zm-16.61,152.75a3.21,3.21,0,0,0,.06-.63,3.59,3.59,0,0,0-2.74-3.48l1.78-13.2,18.26-135.34h.1a3.56,3.56,0,0,0,1.59-.39l122.09,192.11a3.63,3.63,0,0,0-1.1,1.44l-30.46-8.81ZM743,808.52a3.25,3.25,0,0,0-.77.09L687.06,643.83a3.58,3.58,0,0,0,2.1-3.26,4.53,4.53,0,0,0,0-.53l179.76-46.79a3.64,3.64,0,0,0,1.22,1.62l-125.61,214A3.49,3.49,0,0,0,743,808.52ZM682,640.71l-364,52.86c0-.11-.06-.22-.1-.33L582,564.29a3.57,3.57,0,0,0,5.62.58l94.88,73.81a3.49,3.49,0,0,0-.55,1.89S682,640.66,682,640.71ZM352,496.91a3.59,3.59,0,0,0,3.31-2.22l226.2,67.05a3.41,3.41,0,0,0-.07.65,3.57,3.57,0,0,0,.23,1.22l-68.25,33.31L317.51,692.56a3.63,3.63,0,0,0-2-1.53l14.18-75.95,22.07-118.2C351.84,496.88,351.93,496.91,352,496.91ZM802.5,472.48l-115.2,165a3.54,3.54,0,0,0-4.31.64l-94.88-73.81a3.54,3.54,0,0,0,.55-1.88,3.47,3.47,0,0,0-.17-1l213.23-89.85A3.51,3.51,0,0,0,802.5,472.48ZM868.63,592a4.53,4.53,0,0,0,0,.53L688.92,639.31a3.57,3.57,0,0,0-1-1.44l115.2-164.95a3.63,3.63,0,0,0,1.73.46,3.43,3.43,0,0,0,1.39-.29l63.93,116A3.58,3.58,0,0,0,868.63,592Zm350.13,131.65,2.78-153.9a3.58,3.58,0,0,0,3.17-2.73l317.64,40.84s0,0,0,.08a3.5,3.5,0,0,0,.12.86L1221.53,725.61A3.57,3.57,0,0,0,1218.76,723.64Zm273.06,92.1a3.28,3.28,0,0,0-.64-.65l142.66-229.75a3.51,3.51,0,0,0,1.55.37,3.57,3.57,0,0,0,2.92-1.5l118.59,67.07a3.59,3.59,0,0,0-.3,1.43,3.55,3.55,0,0,0,.36,1.53l-131.63,80.18Zm286.09-317.16L1638.28,580a3.58,3.58,0,0,0-5.9.17l-141.55-72-13.34-6.78a3.6,3.6,0,0,0,.21-.93l299.93-3A3.46,3.46,0,0,0,1777.91,498.58Zm-641.25-76.27a3.66,3.66,0,0,0,1.45-.31l81,141.28a3.58,3.58,0,0,0-1,1.19L913.2,437.4a3.4,3.4,0,0,0,.15-.91l219.79-17.12A3.59,3.59,0,0,0,1136.66,422.31ZM801.43,470.82,588.19,560.66a3.55,3.55,0,0,0-3.13-1.86,3.43,3.43,0,0,0-.56.05l-29.06-107a3.58,3.58,0,0,0,2.22-2.66l243.61,20.65A3.12,3.12,0,0,0,801.43,470.82ZM351,496.74,314.76,690.9l-.28,0-.17,0-12.14-78.84L283.36,489.94a3.57,3.57,0,0,0,2.6-2.73l62.48,6.13A3.58,3.58,0,0,0,351,496.74Zm-71.54-8.26L79.06,656l-8.38,7a3.65,3.65,0,0,0-1.38-.82l13.27-62,22.79-106.41c.13,0,.25,0,.38,0a3.58,3.58,0,0,0,3.56-3.29l169.6-3.64A3.57,3.57,0,0,0,279.46,488.48ZM-5.75,659.82,104.09,493.45a5,5,0,0,0,.53.23L68.56,662.06c-.13,0-.25,0-.38,0a3.58,3.58,0,0,0-3.53,3.08l-69.1-2.76A3.59,3.59,0,0,0-5.75,659.82Zm881.42-66.89a3.69,3.69,0,0,0,.13-.83l341.9-25.28a3.58,3.58,0,0,0,3.08,2.91l-.6,33.61L1218,723.62a3.59,3.59,0,0,0-2.86,1.92L976.26,632.23Zm669.69,18.53a3.68,3.68,0,0,0,.57.06,3.59,3.59,0,0,0,3.59-3.59,3.36,3.36,0,0,0-.06-.63l82.61-23.83a3.55,3.55,0,0,0,1.12,1.47L1490.54,814.69a1.51,1.51,0,0,0-.26-.12l30.28-111.66Zm-53.14,204.92,62.43-38,202.7-123.47a3.59,3.59,0,0,0,2.84,1.41h.13l23.3,164.49a3.57,3.57,0,0,0-2.67,3l-288.41-6.19A3.39,3.39,0,0,0,1492.22,816.38Zm292.27,4.28-.12,0-17-119.78-6.33-44.72a3.61,3.61,0,0,0,2.45-2.11l140,40.52a3.29,3.29,0,0,0-.07.63,3.59,3.59,0,0,0,.87,2.32L1786.67,821.42A3.56,3.56,0,0,0,1784.49,820.66Zm95.4-379.89a3.58,3.58,0,0,0,2.86,1.48l23.62,249.45a3.6,3.6,0,0,0-.87.31l-122.1-192.1a3.56,3.56,0,0,0,1.37-2.8,3.49,3.49,0,0,0-.31-1.45ZM1470.6,499.68a3.56,3.56,0,0,0,0,.47,4.75,4.75,0,0,0,0,.53l-246,64.24a3.58,3.58,0,0,0-3.35-2.33,3.48,3.48,0,0,0-1.44.31l-81-141.28a3.48,3.48,0,0,0,1.27-1.7ZM906.49,437.83a3.6,3.6,0,0,0,2.08,1.93L872.69,588.45a2.5,2.5,0,0,0-.47-.05,3.59,3.59,0,0,0-1.39.28L828.61,512.1,806.9,472.72a3.56,3.56,0,0,0,1.54-2.94,3.45,3.45,0,0,0-.07-.72ZM550.75,449.67a3.58,3.58,0,0,0,3.39,2.45,3.68,3.68,0,0,0,.57-.06l29.06,107a3.57,3.57,0,0,0-2,2L355.55,494a3.41,3.41,0,0,0,.07-.65c0-.13,0-.26,0-.4Zm-479,216s0,0,0,0a3.6,3.6,0,0,0-.61-2L280,489.06a3.57,3.57,0,0,0,2.5,1h.16L313.56,691a3.58,3.58,0,0,0-2.58,2.67ZM318,695a3.68,3.68,0,0,0,.06-.58c0-.05,0-.09,0-.14L682.1,641.45a3.58,3.58,0,0,0,3.47,2.71,3.25,3.25,0,0,0,.77-.09l55.17,164.78a3.64,3.64,0,0,0-1.85,1.95ZM746.59,812.16v0a3.6,3.6,0,0,0-1.46-2.88l125.61-214a3.49,3.49,0,0,0,1.48.33,3.54,3.54,0,0,0,1-.17l102.9,242.06a3.53,3.53,0,0,0-1.76,2.32ZM981,838.73a3.5,3.5,0,0,0-4.1-1.56L874,595.11a3.55,3.55,0,0,0,1.43-1.47l179.87,70.25,159.61,62.35a3.29,3.29,0,0,0-.14.94,3.53,3.53,0,0,0,.21,1.18ZM1221.82,728a3.33,3.33,0,0,0,.09-.78,3.57,3.57,0,0,0-.12-.86l129.45-47.12,191.48-69.7a3.56,3.56,0,0,0,1.91,1.77l-29.88,110.18-25.2,92.93a3.46,3.46,0,0,0-3.83,2Z"/><g class="cls-7"><path class="cls-8" d="M1498,630.82a2.33,2.33,0,0,0-2.29,2.09l-51-.46a2.31,2.31,0,0,0-4.59-.11l-45.22-1.8a2.35,2.35,0,0,0-2.32-2.2,2.32,2.32,0,0,0-2.25,1.84l-156.44-18.32v0a2.34,2.34,0,0,0-4.52-.85l-275.73-75.7a2.21,2.21,0,0,0,.08-.37,2.35,2.35,0,0,0-2.35-2.35,2.31,2.31,0,0,0-2.24,1.83l-149-18.06s0,0,0,0a2.35,2.35,0,1,0-4.69,0,2.39,2.39,0,0,0,.15.76l-153,72.19a2.3,2.3,0,0,0-2-1.15,2.34,2.34,0,0,0-2.12,1.38L465.94,531.61a1.94,1.94,0,0,0,.1-.49,2.35,2.35,0,0,0-2.35-2.35,2.32,2.32,0,0,0-2.29,2.05l-188.61-4.05a2.32,2.32,0,0,0-2.31-2.15,2.35,2.35,0,0,0-2.34,2.35,2.3,2.3,0,0,0,.58,1.5l-77,81a2.28,2.28,0,0,0-1.4-.51,2.35,2.35,0,0,0,0,4.69l15.45,163.14a2.31,2.31,0,0,0-1.89,2.25,2.35,2.35,0,0,0,4.7,0,2.31,2.31,0,0,0-.21-.94l62.43-35.91a2.27,2.27,0,0,0,1.86,1,2.32,2.32,0,0,0,2.3-2.12l196.15-1.94a2.31,2.31,0,0,0,4.48.51l216.17,52.16a2.65,2.65,0,0,0-.06.3,2.34,2.34,0,0,0,4.68.06L840.12,781a2.32,2.32,0,0,0,4.61-.43,2.24,2.24,0,0,0-.09-.45l64.2-20.44a2.31,2.31,0,0,0,4.4-.5l159.32,13.5a2.35,2.35,0,0,0,4.69,0,2.27,2.27,0,0,0-.06-.25l127.65-28.29a2.34,2.34,0,0,0,2.2,1.61,2.3,2.3,0,0,0,2.25-1.88l40.9,4a2.33,2.33,0,0,0,4.65.18l110.94-2.38a2.32,2.32,0,0,0,2.29,2,2.35,2.35,0,0,0,2.35-2.35A2.24,2.24,0,0,0,1370,744l126.49-109.14a2.33,2.33,0,0,0,3.94-1.71A2.35,2.35,0,0,0,1498,630.82Zm-424,139.63a2.28,2.28,0,0,0-1.41,1.73l-159.32-13.5a2.13,2.13,0,0,0-.12-.62l139.46-58.76a2.32,2.32,0,0,0,2,1.23,2.09,2.09,0,0,0,.36-.07l10,36.76ZM1207,741a2.35,2.35,0,0,0-2.17,1.44L1056.94,698.6a2,2,0,0,0,.09-.42,2.32,2.32,0,0,0-.16-.79l172.77-84.33a2.33,2.33,0,0,0,1.29,1l-19.2,102.81L1207.22,741Zm22.36-128.37-28.18,13.75L1056.63,697a2.29,2.29,0,0,0-2-1.12,2.35,2.35,0,0,0-1.69.72l-.13-.11-61.93-48.17a2.32,2.32,0,0,0,.39-1.21s0-.06,0-.09l238.06-34.57C1229.38,612.48,1229.38,612.56,1229.4,612.63ZM950.46,537a2.18,2.18,0,0,0,1,.22,2,2,0,0,0,.49-.1L988,644.94a2.34,2.34,0,0,0-1.38,2.13,2.05,2.05,0,0,0,.07.34l-30.19,7.85L869.12,678a2.23,2.23,0,0,0-.81-1l21.85-37.23ZM866.15,681l-23.47,97.26a1.45,1.45,0,0,0-.3-.06,2.33,2.33,0,0,0-2,1.23L641,696.36a2.85,2.85,0,0,0,.12-.58l223.58-16.54A2.31,2.31,0,0,0,866.15,681ZM636.47,696l-160.9,42a2.27,2.27,0,0,0-3.25-1.23L461.78,721l-33.84-50.8a2.33,2.33,0,0,0,.76-1.24l207.72,26.7s0,0,0,.05A3.4,3.4,0,0,0,636.47,696Zm-174.2-163.1L369,683.18a2.23,2.23,0,0,0-2.89.76l-77.57-43.88a2.25,2.25,0,0,0,.2-.93,2.41,2.41,0,0,0-.24-1l44.74-27.25,128.64-78.35A2.27,2.27,0,0,0,462.27,532.94ZM273.2,738.63l13.11-97.17.06,0a2.3,2.3,0,0,0,1.87-1l77.58,43.88a2.22,2.22,0,0,0-.2.93,2.4,2.4,0,0,0,.21,1l-70.24,41-21.08,12.29A2.27,2.27,0,0,0,273.2,738.63Zm155.49-70.77,209.87-76.4a2.34,2.34,0,0,0,1.8,1.27L638.55,693.4a2.3,2.3,0,0,0-2,1.76L491.63,676.54l-62.84-8.08s0,0,0-.05A2,2,0,0,0,428.69,667.86ZM864.6,678.75,641,695.29a2.3,2.3,0,0,0-2-1.88l1.82-100.67a2.29,2.29,0,0,0,1.85-1.23l222,86.72A2.29,2.29,0,0,0,864.6,678.75Zm-494.36,6.13,54.05-15.59a2.26,2.26,0,0,0,3.24,1.17l44.38,66.64a2.25,2.25,0,0,0-.45.52L370.15,686.11a2.28,2.28,0,0,0,.17-.83A2.83,2.83,0,0,0,370.24,684.88ZM284.1,638.73a2.57,2.57,0,0,0-.08.4,2.31,2.31,0,0,0,1.8,2.23l-13.1,97.17-.07,0a2.25,2.25,0,0,0-1,.27L191.77,613.14a2.13,2.13,0,0,0,.73-.92l17.73,5.13Zm584.16,42a2.33,2.33,0,0,0,1-1.89,2.05,2.05,0,0,0-.07-.34l117.58-30.6a2.27,2.27,0,0,0,.65.93L912.1,756.7a2.28,2.28,0,0,0-1.12-.32,2.5,2.5,0,0,0-.91.18L885.23,711.5ZM913,757.61a2.4,2.4,0,0,0-.5-.63l52-74.41,23.37-33.47a2.39,2.39,0,0,0,1.12.32,2.29,2.29,0,0,0,1.68-.73L1052.72,697a2.23,2.23,0,0,0-.39,1.21,2.16,2.16,0,0,0,.14.67l-71.33,30ZM426.82,666.13a2.09,2.09,0,0,0-.36-.07,2.35,2.35,0,0,0-2.35,2.35,2.45,2.45,0,0,0,.08.39l-54.05,15.6a2.31,2.31,0,0,0-.75-.94l93.29-150.24.16.08-22.2,81.87Zm34.76-134L288.2,637.72a2.3,2.3,0,0,0-1.83-.94l-.08,0L271.05,529.21a2.3,2.3,0,0,0,1.72-1.94l188.61,4.05A2.69,2.69,0,0,0,461.58,532.12Zm-191.1-2.8.09,0,15.24,107.59a2.34,2.34,0,0,0-1.61,1.35l-91.6-26.5a2.83,2.83,0,0,0,.08-.4,2.3,2.3,0,0,0-.58-1.5l77-81A2.33,2.33,0,0,0,270.48,529.32Zm4.3,210.58,91.33-53.25a2.25,2.25,0,0,0,3.79-.11l101.31,51.51a2.37,2.37,0,0,0-.12.6l-196.15,1.94A2,2,0,0,0,274.78,739.9ZM694,789.77a2.39,2.39,0,0,0-.94.2l-53-92.4a2.3,2.3,0,0,0,.67-.75l199.39,83.09a2.29,2.29,0,0,0-.12.59L696.3,791.69A2.31,2.31,0,0,0,694,789.77Zm513.67-48.64,23.7-127,.18,0,.11,0,20.24,131.42a2.29,2.29,0,0,0-1.66,1.76l-40.89-4A2.32,2.32,0,0,0,1207.71,741.13ZM1441,634.46l-71.84,108.81a2,2,0,0,0-.34-.14l22.49-105,1.1-5.11a1.69,1.69,0,0,0,.24,0,2.32,2.32,0,0,0,2.28-2l45.23,1.8A2.29,2.29,0,0,0,1441,634.46ZM1254.45,746.53,1391,632.37a2.26,2.26,0,0,0,.9.52L1368.31,743c-.09,0-.16,0-.24,0a2.33,2.33,0,0,0-2.31,2.15l-110.94,2.38A2.25,2.25,0,0,0,1254.45,746.53Zm115.09-3,71.84-108.8a2.23,2.23,0,0,0,1.06.28,2.32,2.32,0,0,0,2.3-2.08l51,.46a2.26,2.26,0,0,0,.41,1.08L1369.66,743.63A.54.54,0,0,0,1369.54,743.54Zm20.74-112.87s0,0,0,0a2.28,2.28,0,0,0,.43,1.28L1254.16,746.13a2.32,2.32,0,0,0-1.63-.67l-.11,0-20.24-131.42a2.29,2.29,0,0,0,1.66-1.71Zm-161-19.2a2.09,2.09,0,0,0-.08.36s0,.06,0,.09L991.2,646.49a2.31,2.31,0,0,0-2.23-1.77,1.94,1.94,0,0,0-.49.1L952.39,537a2.42,2.42,0,0,0,1.21-1.27ZM949.08,534.88v0a2.32,2.32,0,0,0,1,1.86L867.9,676.7a2.26,2.26,0,0,0-1-.22,2.23,2.23,0,0,0-.67.14L799,518.31a2.32,2.32,0,0,0,1.12-1.5ZM795.87,517.49a2.32,2.32,0,0,0,2,1.15,2.23,2.23,0,0,0,.68-.14l67.29,158.31a2.3,2.3,0,0,0-.93,1L642.88,591a1.78,1.78,0,0,0,0-1.36ZM638.4,590a2.5,2.5,0,0,0-.09.49,2.07,2.07,0,0,0,.11.55L428.55,667.38a2.35,2.35,0,0,0-1.25-1.15l22.75-83.88,13.28-49a2.09,2.09,0,0,0,.36.07,2.33,2.33,0,0,0,2.12-1.38ZM208.08,777.72a2.3,2.3,0,0,0-1.83-1L190.79,613.59a2.1,2.1,0,0,0,.57-.17l79.85,125.63a2.25,2.25,0,0,0-.7,2.76Zm267.6-38.55c0-.1.06-.19.06-.29a1.86,1.86,0,0,0-.07-.34l160.9-42a2.35,2.35,0,0,0,2.18,1.52,2.48,2.48,0,0,0,1-.2l53,92.4a2.39,2.39,0,0,0-.83,1.08Zm368.85,40.45a2.36,2.36,0,0,0-1.36-1.25l23.47-97.25c.1,0,.19.06.29.06a2.24,2.24,0,0,0,.91-.19l41.82,75.85a2.3,2.3,0,0,0-1,1.89,2.52,2.52,0,0,0,.1.46Zm232.57-7.74a2.33,2.33,0,0,0-2.2-1.6,2.09,2.09,0,0,0-.36.07l-4.19-15.41-14.82-54.58a2.37,2.37,0,0,0,1.32-1.28l147.93,43.85a2,2,0,0,0-.09.41,2.38,2.38,0,0,0,0,.26Z"/><path class="cls-8" d="M1498,630.82a2.33,2.33,0,0,0-2.29,2.09l-51-.46a2.31,2.31,0,0,0-4.59-.11l-45.22-1.8a2.35,2.35,0,0,0-2.32-2.2,2.32,2.32,0,0,0-2.25,1.84l-156.44-18.32v0a2.34,2.34,0,0,0-4.52-.85l-275.73-75.7a2.21,2.21,0,0,0,.08-.37,2.35,2.35,0,0,0-2.35-2.35,2.31,2.31,0,0,0-2.24,1.83l-149-18.06s0,0,0,0a2.35,2.35,0,1,0-4.69,0,2.39,2.39,0,0,0,.15.76l-153,72.19a2.3,2.3,0,0,0-2-1.15,2.34,2.34,0,0,0-2.12,1.38L465.94,531.61a1.94,1.94,0,0,0,.1-.49,2.35,2.35,0,0,0-2.35-2.35,2.32,2.32,0,0,0-2.29,2.05l-188.61-4.05a2.32,2.32,0,0,0-2.31-2.15,2.35,2.35,0,0,0-2.34,2.35,2.3,2.3,0,0,0,.58,1.5l-77,81a2.28,2.28,0,0,0-1.4-.51,2.35,2.35,0,0,0,0,4.69l15.45,163.14a2.31,2.31,0,0,0-1.89,2.25,2.35,2.35,0,0,0,4.7,0,2.31,2.31,0,0,0-.21-.94l62.43-35.91a2.27,2.27,0,0,0,1.86,1,2.32,2.32,0,0,0,2.3-2.12l196.15-1.94a2.31,2.31,0,0,0,4.48.51l216.17,52.16a2.65,2.65,0,0,0-.06.3,2.34,2.34,0,0,0,4.68.06L840.12,781a2.32,2.32,0,0,0,4.61-.43,2.24,2.24,0,0,0-.09-.45l64.2-20.44a2.31,2.31,0,0,0,4.4-.5l159.32,13.5a2.35,2.35,0,0,0,4.69,0,2.27,2.27,0,0,0-.06-.25l127.65-28.29a2.34,2.34,0,0,0,2.2,1.61,2.3,2.3,0,0,0,2.25-1.88l40.9,4a2.33,2.33,0,0,0,4.65.18l110.94-2.38a2.32,2.32,0,0,0,2.29,2,2.35,2.35,0,0,0,2.35-2.35A2.24,2.24,0,0,0,1370,744l126.49-109.14a2.33,2.33,0,0,0,3.94-1.71A2.35,2.35,0,0,0,1498,630.82Zm-424,139.63a2.28,2.28,0,0,0-1.41,1.73l-159.32-13.5a2.13,2.13,0,0,0-.12-.62l139.46-58.76a2.32,2.32,0,0,0,2,1.23,2.09,2.09,0,0,0,.36-.07l10,36.76ZM1207,741a2.35,2.35,0,0,0-2.17,1.44L1056.94,698.6a2,2,0,0,0,.09-.42,2.32,2.32,0,0,0-.16-.79l172.77-84.33a2.33,2.33,0,0,0,1.29,1l-19.2,102.81L1207.22,741Zm22.36-128.37-28.18,13.75L1056.63,697a2.29,2.29,0,0,0-2-1.12,2.35,2.35,0,0,0-1.69.72l-.13-.11-61.93-48.17a2.32,2.32,0,0,0,.39-1.21s0-.06,0-.09l238.06-34.57C1229.38,612.48,1229.38,612.56,1229.4,612.63ZM950.46,537a2.18,2.18,0,0,0,1,.22,2,2,0,0,0,.49-.1L988,644.94a2.34,2.34,0,0,0-1.38,2.13,2.05,2.05,0,0,0,.07.34l-30.19,7.85L869.12,678a2.23,2.23,0,0,0-.81-1l21.85-37.23ZM866.15,681l-23.47,97.26a1.45,1.45,0,0,0-.3-.06,2.33,2.33,0,0,0-2,1.23L641,696.36a2.85,2.85,0,0,0,.12-.58l223.58-16.54A2.31,2.31,0,0,0,866.15,681ZM636.47,696l-160.9,42a2.27,2.27,0,0,0-3.25-1.23L461.78,721l-33.84-50.8a2.33,2.33,0,0,0,.76-1.24l207.72,26.7s0,0,0,.05A3.4,3.4,0,0,0,636.47,696Zm-174.2-163.1L369,683.18a2.23,2.23,0,0,0-2.89.76l-77.57-43.88a2.25,2.25,0,0,0,.2-.93,2.41,2.41,0,0,0-.24-1l44.74-27.25,128.64-78.35A2.27,2.27,0,0,0,462.27,532.94ZM273.2,738.63l13.11-97.17.06,0a2.3,2.3,0,0,0,1.87-1l77.58,43.88a2.22,2.22,0,0,0-.2.93,2.4,2.4,0,0,0,.21,1l-70.24,41-21.08,12.29A2.27,2.27,0,0,0,273.2,738.63Zm155.49-70.77,209.87-76.4a2.34,2.34,0,0,0,1.8,1.27L638.55,693.4a2.3,2.3,0,0,0-2,1.76L491.63,676.54l-62.84-8.08s0,0,0-.05A2,2,0,0,0,428.69,667.86ZM864.6,678.75,641,695.29a2.3,2.3,0,0,0-2-1.88l1.82-100.67a2.29,2.29,0,0,0,1.85-1.23l222,86.72A2.29,2.29,0,0,0,864.6,678.75Zm-494.36,6.13,54.05-15.59a2.26,2.26,0,0,0,3.24,1.17l44.38,66.64a2.25,2.25,0,0,0-.45.52L370.15,686.11a2.28,2.28,0,0,0,.17-.83A2.83,2.83,0,0,0,370.24,684.88ZM284.1,638.73a2.57,2.57,0,0,0-.08.4,2.31,2.31,0,0,0,1.8,2.23l-13.1,97.17-.07,0a2.25,2.25,0,0,0-1,.27L191.77,613.14a2.13,2.13,0,0,0,.73-.92l17.73,5.13Zm584.16,42a2.33,2.33,0,0,0,1-1.89,2.05,2.05,0,0,0-.07-.34l117.58-30.6a2.27,2.27,0,0,0,.65.93L912.1,756.7a2.28,2.28,0,0,0-1.12-.32,2.5,2.5,0,0,0-.91.18L885.23,711.5ZM913,757.61a2.4,2.4,0,0,0-.5-.63l52-74.41,23.37-33.47a2.39,2.39,0,0,0,1.12.32,2.29,2.29,0,0,0,1.68-.73L1052.72,697a2.23,2.23,0,0,0-.39,1.21,2.16,2.16,0,0,0,.14.67l-71.33,30ZM426.82,666.13a2.09,2.09,0,0,0-.36-.07,2.35,2.35,0,0,0-2.35,2.35,2.45,2.45,0,0,0,.08.39l-54.05,15.6a2.31,2.31,0,0,0-.75-.94l93.29-150.24.16.08-22.2,81.87Zm34.76-134L288.2,637.72a2.3,2.3,0,0,0-1.83-.94l-.08,0L271.05,529.21a2.3,2.3,0,0,0,1.72-1.94l188.61,4.05A2.69,2.69,0,0,0,461.58,532.12Zm-191.1-2.8.09,0,15.24,107.59a2.34,2.34,0,0,0-1.61,1.35l-91.6-26.5a2.83,2.83,0,0,0,.08-.4,2.3,2.3,0,0,0-.58-1.5l77-81A2.33,2.33,0,0,0,270.48,529.32Zm4.3,210.58,91.33-53.25a2.25,2.25,0,0,0,3.79-.11l101.31,51.51a2.37,2.37,0,0,0-.12.6l-196.15,1.94A2,2,0,0,0,274.78,739.9ZM694,789.77a2.39,2.39,0,0,0-.94.2l-53-92.4a2.3,2.3,0,0,0,.67-.75l199.39,83.09a2.29,2.29,0,0,0-.12.59L696.3,791.69A2.31,2.31,0,0,0,694,789.77Zm513.67-48.64,23.7-127,.18,0,.11,0,20.24,131.42a2.29,2.29,0,0,0-1.66,1.76l-40.89-4A2.32,2.32,0,0,0,1207.71,741.13ZM1441,634.46l-71.84,108.81a2,2,0,0,0-.34-.14l22.49-105,1.1-5.11a1.69,1.69,0,0,0,.24,0,2.32,2.32,0,0,0,2.28-2l45.23,1.8A2.29,2.29,0,0,0,1441,634.46ZM1254.45,746.53,1391,632.37a2.26,2.26,0,0,0,.9.52L1368.31,743c-.09,0-.16,0-.24,0a2.33,2.33,0,0,0-2.31,2.15l-110.94,2.38A2.25,2.25,0,0,0,1254.45,746.53Zm115.09-3,71.84-108.8a2.23,2.23,0,0,0,1.06.28,2.32,2.32,0,0,0,2.3-2.08l51,.46a2.26,2.26,0,0,0,.41,1.08L1369.66,743.63A.54.54,0,0,0,1369.54,743.54Zm20.74-112.87s0,0,0,0a2.28,2.28,0,0,0,.43,1.28L1254.16,746.13a2.32,2.32,0,0,0-1.63-.67l-.11,0-20.24-131.42a2.29,2.29,0,0,0,1.66-1.71Zm-161-19.2a2.09,2.09,0,0,0-.08.36s0,.06,0,.09L991.2,646.49a2.31,2.31,0,0,0-2.23-1.77,1.94,1.94,0,0,0-.49.1L952.39,537a2.42,2.42,0,0,0,1.21-1.27ZM949.08,534.88v0a2.32,2.32,0,0,0,1,1.86L867.9,676.7a2.26,2.26,0,0,0-1-.22,2.23,2.23,0,0,0-.67.14L799,518.31a2.32,2.32,0,0,0,1.12-1.5ZM795.87,517.49a2.32,2.32,0,0,0,2,1.15,2.23,2.23,0,0,0,.68-.14l67.29,158.31a2.3,2.3,0,0,0-.93,1L642.88,591a1.78,1.78,0,0,0,0-1.36ZM638.4,590a2.5,2.5,0,0,0-.09.49,2.07,2.07,0,0,0,.11.55L428.55,667.38a2.35,2.35,0,0,0-1.25-1.15l22.75-83.88,13.28-49a2.09,2.09,0,0,0,.36.07,2.33,2.33,0,0,0,2.12-1.38ZM208.08,777.72a2.3,2.3,0,0,0-1.83-1L190.79,613.59a2.1,2.1,0,0,0,.57-.17l79.85,125.63a2.25,2.25,0,0,0-.7,2.76Zm267.6-38.55c0-.1.06-.19.06-.29a1.86,1.86,0,0,0-.07-.34l160.9-42a2.35,2.35,0,0,0,2.18,1.52,2.48,2.48,0,0,0,1-.2l53,92.4a2.39,2.39,0,0,0-.83,1.08Zm368.85,40.45a2.36,2.36,0,0,0-1.36-1.25l23.47-97.25c.1,0,.19.06.29.06a2.24,2.24,0,0,0,.91-.19l41.82,75.85a2.3,2.3,0,0,0-1,1.89,2.52,2.52,0,0,0,.1.46Zm232.57-7.74a2.33,2.33,0,0,0-2.2-1.6,2.09,2.09,0,0,0-.36.07l-4.19-15.41-14.82-54.58a2.37,2.37,0,0,0,1.32-1.28l147.93,43.85a2,2,0,0,0-.09.41,2.38,2.38,0,0,0,0,.26Z"/></g><path class="cls-9" d="M1728.9,562.86a5.13,5.13,0,1,1,3.82,6.17A5.14,5.14,0,0,1,1728.9,562.86Z"/><path class="cls-10" d="M1792.45,429.05a9.28,9.28,0,1,1,6.91,11.14A9.29,9.29,0,0,1,1792.45,429.05Z"/><path class="cls-11" d="M1743.12,748.29a8,8,0,1,1,6,9.61A8,8,0,0,1,1743.12,748.29Z"/><path class="cls-12" d="M1729.44,403.75a9,9,0,1,1,6.7,10.81A9,9,0,0,1,1729.44,403.75Z"/><g class="cls-13"><path class="cls-14" d="M1750.09,677.79a4.14,4.14,0,1,1,3.08,5A4.14,4.14,0,0,1,1750.09,677.79Z"/><path class="cls-15" d="M1713,407.86a5.18,5.18,0,1,1,3.87,6.22A5.19,5.19,0,0,1,1713,407.86Z"/><path class="cls-16" d="M1718.06,507.69a4.73,4.73,0,1,1,3.53,5.68A4.73,4.73,0,0,1,1718.06,507.69Z"/><path class="cls-17" d="M1536,497.26a6.43,6.43,0,1,1,4.8,7.74A6.46,6.46,0,0,1,1536,497.26Z"/><path class="cls-18" d="M1533.39,647.9a6.22,6.22,0,1,1,4.64,7.48A6.21,6.21,0,0,1,1533.39,647.9Z"/><path class="cls-19" d="M1660.58,341.28a5.69,5.69,0,1,1,4.24,6.84A5.69,5.69,0,0,1,1660.58,341.28Z"/><path class="cls-20" d="M1456.4,642.5a3.1,3.1,0,1,1,2.31,3.73A3.09,3.09,0,0,1,1456.4,642.5Z"/><path class="cls-21" d="M1455.79,734.6a4.22,4.22,0,1,1,3.15,5.08A4.22,4.22,0,0,1,1455.79,734.6Z"/><path class="cls-22" d="M1665,573.49a4.86,4.86,0,1,1,3.62,5.85A4.86,4.86,0,0,1,1665,573.49Z"/><path class="cls-23" d="M1680.05,238a14.59,14.59,0,1,1,10.86,17.54A14.57,14.57,0,0,1,1680.05,238Z"/><path class="cls-24" d="M1485,513.78a4.2,4.2,0,1,1,3.12,5A4.2,4.2,0,0,1,1485,513.78Z"/><path class="cls-25" d="M1491.69,582.26a2.93,2.93,0,1,1,2.18,3.52A2.91,2.91,0,0,1,1491.69,582.26Z"/><path class="cls-26" d="M1613.35,239.43a9.45,9.45,0,1,1,7,11.36A9.44,9.44,0,0,1,1613.35,239.43Z"/><path class="cls-27" d="M1515.16,469a3.55,3.55,0,1,1,2.64,4.27A3.55,3.55,0,0,1,1515.16,469Z"/><path class="cls-28" d="M1146.52,558.27a9.54,9.54,0,1,1,7.1,11.46A9.53,9.53,0,0,1,1146.52,558.27Z"/><path class="cls-29" d="M1671.62,223.92a5.08,5.08,0,1,1,3.79,6.12A5.09,5.09,0,0,1,1671.62,223.92Z"/><path class="cls-30" d="M1455.71,502.92a3.55,3.55,0,1,1,2.65,4.27A3.55,3.55,0,0,1,1455.71,502.92Z"/><path class="cls-31" d="M1406.22,635.93a4.79,4.79,0,1,1,3.56,5.75A4.79,4.79,0,0,1,1406.22,635.93Z"/><path class="cls-32" d="M1367.21,746.7a3.9,3.9,0,1,1,2.9,4.68A3.9,3.9,0,0,1,1367.21,746.7Z"/><path class="cls-33" d="M1464.12,743.07a4.13,4.13,0,1,1,4.58,3.64A4.14,4.14,0,0,1,1464.12,743.07Z"/><path class="cls-34" d="M1538.25,723.56a4.36,4.36,0,1,1,4.82,3.84A4.37,4.37,0,0,1,1538.25,723.56Z"/><path class="cls-35" d="M1402.35,799.85a3.1,3.1,0,1,1,2.32,3.73A3.11,3.11,0,0,1,1402.35,799.85Z"/><path class="cls-36" d="M1420.3,797.59a4.8,4.8,0,1,1,5.31,4.22A4.8,4.8,0,0,1,1420.3,797.59Z"/><path class="cls-37" d="M1406,839.21a4.57,4.57,0,1,1,5.06,4A4.58,4.58,0,0,1,1406,839.21Z"/><path class="cls-38" d="M1259.92,735.87a4,4,0,1,1,3,4.85A4,4,0,0,1,1259.92,735.87Z"/><path class="cls-39" d="M293.14,528.6a3.94,3.94,0,1,1,2.94,4.74A3.94,3.94,0,0,1,293.14,528.6Z"/><path class="cls-40" d="M1400.21,772.9a4.33,4.33,0,1,1,4.79,3.81A4.31,4.31,0,0,1,1400.21,772.9Z"/><path class="cls-41" d="M1260.08,691.18a3.15,3.15,0,1,1,2.34,3.79A3.14,3.14,0,0,1,1260.08,691.18Z"/><path class="cls-42" d="M1291.67,696.68a3,3,0,1,1,2.25,3.63A3,3,0,0,1,1291.67,696.68Z"/><path class="cls-43" d="M1396.2,676.06a4.14,4.14,0,1,1,3.09,5A4.13,4.13,0,0,1,1396.2,676.06Z"/><path class="cls-44" d="M1219.29,602.18a3.45,3.45,0,1,1,2.57,4.15A3.46,3.46,0,0,1,1219.29,602.18Z"/><path class="cls-45" d="M1288.56,797.73a4.27,4.27,0,1,1,4.72,3.75A4.26,4.26,0,0,1,1288.56,797.73Z"/><path class="cls-46" d="M948.94,733.55a3.12,3.12,0,1,1,2.33,3.75A3.14,3.14,0,0,1,948.94,733.55Z"/><path class="cls-47" d="M665.26,602.94a4.46,4.46,0,1,1,3.33,5.37A4.46,4.46,0,0,1,665.26,602.94Z"/><path class="cls-48" d="M553.57,760.38a4.63,4.63,0,1,1,3.45,5.56A4.65,4.65,0,0,1,553.57,760.38Z"/><path class="cls-49" d="M595,817.83a4,4,0,1,1,3,4.82A4,4,0,0,1,595,817.83Z"/><path class="cls-50" d="M1663.83,401.55a3.34,3.34,0,1,1,2.49,4A3.34,3.34,0,0,1,1663.83,401.55Z"/><path class="cls-51" d="M243.56,812.2a3.74,3.74,0,1,1,5.22-.85A3.75,3.75,0,0,1,243.56,812.2Z"/><path class="cls-52" d="M261.58,673.12a4.48,4.48,0,1,1,6.26-1A4.48,4.48,0,0,1,261.58,673.12Z"/><path class="cls-53" d="M282,605.45a3.43,3.43,0,1,1,4.78-.78A3.44,3.44,0,0,1,282,605.45Z"/><path class="cls-54" d="M148.27,657.24a3.64,3.64,0,1,1,5.08-.83A3.64,3.64,0,0,1,148.27,657.24Z"/><path class="cls-55" d="M129,616.67a3.3,3.3,0,1,1,4.6-.75A3.31,3.31,0,0,1,129,616.67Z"/><path class="cls-56" d="M144.26,600a3.68,3.68,0,1,1,5.14-.84A3.68,3.68,0,0,1,144.26,600Z"/><path class="cls-57" d="M1681.63,435.59a5.3,5.3,0,1,1,4,6.38A5.3,5.3,0,0,1,1681.63,435.59Z"/><path class="cls-58" d="M1556.19,633a7.89,7.89,0,1,1,5.88,9.48A7.89,7.89,0,0,1,1556.19,633Z"/><path class="cls-59" d="M1550.76,548.52a13.22,13.22,0,1,1,9.85,15.89A13.22,13.22,0,0,1,1550.76,548.52Z"/><path class="cls-60" d="M1658.84,489.72a20.91,20.91,0,1,1,15.58,25.14A20.92,20.92,0,0,1,1658.84,489.72Z"/><path class="cls-61" d="M1724,628a5.82,5.82,0,1,1,4.34,7A5.82,5.82,0,0,1,1724,628Z"/><path class="cls-62" d="M1700.07,376.09a10.33,10.33,0,1,1,7.69,12.42A10.31,10.31,0,0,1,1700.07,376.09Z"/><path class="cls-63" d="M1401.94,638.34a4.12,4.12,0,1,1,3.07,5A4.14,4.14,0,0,1,1401.94,638.34Z"/><path class="cls-64" d="M1461.27,733.6a3.8,3.8,0,1,1,4.21,3.34A3.81,3.81,0,0,1,1461.27,733.6Z"/><path class="cls-65" d="M1465.56,537.4a3.95,3.95,0,1,1,2.94,4.74A3.95,3.95,0,0,1,1465.56,537.4Z"/><path class="cls-66" d="M1343.94,746.5a3.39,3.39,0,1,1,2.53,4.07A3.41,3.41,0,0,1,1343.94,746.5Z"/><path class="cls-67" d="M1466.9,604.36a5,5,0,1,1,3.71,6A5,5,0,0,1,1466.9,604.36Z"/><path class="cls-68" d="M1454.11,665.47a3.44,3.44,0,1,1,2.56,4.14A3.44,3.44,0,0,1,1454.11,665.47Z"/><path class="cls-69" d="M1393.68,772.77a5.22,5.22,0,1,1,3.89,6.27A5.24,5.24,0,0,1,1393.68,772.77Z"/><path class="cls-70" d="M849.7,703.94a3.67,3.67,0,1,1,2.73,4.41A3.68,3.68,0,0,1,849.7,703.94Z"/><path class="cls-71" d="M261.23,662.61a11.19,11.19,0,1,1,15.62-2.54A11.2,11.2,0,0,1,261.23,662.61Z"/><path class="cls-72" d="M490.32,737.12a3.91,3.91,0,1,1,2.91,4.71A3.9,3.9,0,0,1,490.32,737.12Z"/><path class="cls-73" d="M816.81,751.9a4.83,4.83,0,1,1,3.6,5.8A4.85,4.85,0,0,1,816.81,751.9Z"/><path class="cls-74" d="M1068.35,703.9a6.4,6.4,0,1,1,4.78,7.7A6.41,6.41,0,0,1,1068.35,703.9Z"/><path class="cls-75" d="M1275.52,707.47a4.84,4.84,0,1,1,3.61,5.83A4.84,4.84,0,0,1,1275.52,707.47Z"/><path class="cls-76" d="M290.47,578A19,19,0,1,1,317,573.64,19,19,0,0,1,290.47,578Z"/><path class="cls-77" d="M1580.24,428.83a4.2,4.2,0,1,1,3.13,5A4.21,4.21,0,0,1,1580.24,428.83Z"/><path class="cls-78" d="M313.49,744.92a4.14,4.14,0,1,1,5.77-.94A4.13,4.13,0,0,1,313.49,744.92Z"/><path class="cls-79" d="M373.71,705.48A8.46,8.46,0,1,1,380,715.65,8.45,8.45,0,0,1,373.71,705.48Z"/><path class="cls-80" d="M1420.93,769.94a5.3,5.3,0,1,1,5.86,4.66A5.29,5.29,0,0,1,1420.93,769.94Z"/><path class="cls-81" d="M1524.34,744.43a4.58,4.58,0,1,1,5.06,4A4.57,4.57,0,0,1,1524.34,744.43Z"/><path class="cls-82" d="M1564.15,793.28A5.31,5.31,0,1,1,1570,798,5.31,5.31,0,0,1,1564.15,793.28Z"/><path class="cls-83" d="M1691.13,696.07a4.43,4.43,0,1,1,.13,6.27A4.43,4.43,0,0,1,1691.13,696.07Z"/><path class="cls-84" d="M1706.31,542.36a5.82,5.82,0,1,1,.17,8.24A5.84,5.84,0,0,1,1706.31,542.36Z"/><path class="cls-85" d="M1468.73,640.41a34.24,34.24,0,1,1,1.06,48.4A34.22,34.22,0,0,1,1468.73,640.41Z"/><path class="cls-86" d="M1488.68,783.87a6,6,0,1,1,3,7.9A6,6,0,0,1,1488.68,783.87Z"/><path class="cls-87" d="M1588.38,615.46a8.87,8.87,0,1,1,.28,12.54A8.86,8.86,0,0,1,1588.38,615.46Z"/><path class="cls-88" d="M1665,443.7a13,13,0,1,1,.39,18.35A13,13,0,0,1,1665,443.7Z"/><path class="cls-89" d="M1400.43,768.59a7.62,7.62,0,1,1,.23,10.78A7.61,7.61,0,0,1,1400.43,768.59Z"/><path class="cls-90" d="M1421.26,805.91a10.88,10.88,0,1,1,5.51,14.37A10.87,10.87,0,0,1,1421.26,805.91Z"/><path class="cls-91" d="M1446,595.28a11,11,0,1,1,.34,15.57A11,11,0,0,1,1446,595.28Z"/><path class="cls-92" d="M1499.83,428.09a8.58,8.58,0,1,1,.26,12.12A8.57,8.57,0,0,1,1499.83,428.09Z"/><path class="cls-93" d="M377.36,765.53a18.19,18.19,0,1,1,.55,25.71A18.17,18.17,0,0,1,377.36,765.53Z"/><path class="cls-94" d="M1556.5,376a16,16,0,1,1,.48,22.65A16,16,0,0,1,1556.5,376Z"/><path class="cls-95" d="M1573.69,607.76a15.46,15.46,0,1,1,.47,21.85A15.43,15.43,0,0,1,1573.69,607.76Z"/><path class="cls-96" d="M1320.7,615.16a19.49,19.49,0,1,1,.61,27.56A19.47,19.47,0,0,1,1320.7,615.16Z"/><path class="cls-97" d="M1392.47,518.1a18.06,18.06,0,1,1,.56,25.53A18,18,0,0,1,1392.47,518.1Z"/><path class="cls-98" d="M1077.78,699.66a8.47,8.47,0,1,1,.25,12A8.47,8.47,0,0,1,1077.78,699.66Z"/><path class="cls-99" d="M267,592.11a5.49,5.49,0,1,1,7.24,2.83A5.48,5.48,0,0,1,267,592.11Z"/><path class="cls-100" d="M317.21,564.56a5.47,5.47,0,1,1,.17,7.73A5.46,5.46,0,0,1,317.21,564.56Z"/><path class="cls-101" d="M1324.13,722.82a21,21,0,1,1,.64,29.63A21,21,0,0,1,1324.13,722.82Z"/><path class="cls-102" d="M1422.82,643.28a17.81,17.81,0,1,1,.54,25.19A17.79,17.79,0,0,1,1422.82,643.28Z"/><path class="cls-103" d="M309.1,496.29a12.87,12.87,0,1,1,.4,18.19A12.86,12.86,0,0,1,309.1,496.29Z"/><path class="cls-104" d="M542.41,853.32a4,4,0,1,1,.13,5.58A3.94,3.94,0,0,1,542.41,853.32Z"/><path class="cls-105" d="M477.5,688.33a9.48,9.48,0,1,1,.29,13.41A9.48,9.48,0,0,1,477.5,688.33Z"/><path class="cls-106" d="M1092.49,382.2a6.8,6.8,0,1,1,.21,9.62A6.8,6.8,0,0,1,1092.49,382.2Z"/><path class="cls-107" d="M895,438.91a7.3,7.3,0,1,1,.22,10.31A7.28,7.28,0,0,1,895,438.91Z"/><path class="cls-108" d="M254.76,538.79a11,11,0,1,1,14.51,5.66A11,11,0,0,1,254.76,538.79Z"/><path class="cls-109" d="M219.68,678.6a20.92,20.92,0,1,1,27.56,10.76A20.91,20.91,0,0,1,219.68,678.6Z"/><path class="cls-110" d="M196.3,620.41a5.89,5.89,0,1,1,7.75,3A5.89,5.89,0,0,1,196.3,620.41Z"/><path class="cls-111" d="M217.79,594.55a18.73,18.73,0,1,1,24.67,9.63A18.73,18.73,0,0,1,217.79,594.55Z"/><path class="cls-112" d="M205.79,666.88a3.47,3.47,0,1,1,4.56,1.79A3.46,3.46,0,0,1,205.79,666.88Z"/><path class="cls-113" d="M493,547.92a28.92,28.92,0,1,1,.89,40.89A28.92,28.92,0,0,1,493,547.92Z"/><path class="cls-114" d="M1548.47,631.93a10.49,10.49,0,1,1,7.81,12.62A10.49,10.49,0,0,1,1548.47,631.93Z"/><path class="cls-115" d="M1584.65,483.3a7.92,7.92,0,1,1,5.9,9.52A7.93,7.93,0,0,1,1584.65,483.3Z"/><path class="cls-116" d="M1649.17,329.07a17,17,0,1,1,12.65,20.41A17,17,0,0,1,1649.17,329.07Z"/><path class="cls-117" d="M1488.29,574.08a10.25,10.25,0,1,1,7.63,12.33A10.24,10.24,0,0,1,1488.29,574.08Z"/><path class="cls-118" d="M1453.57,638.88a10,10,0,1,1,7.44,12A10,10,0,0,1,1453.57,638.88Z"/><path class="cls-119" d="M1534.22,471.13a2.76,2.76,0,1,1,2.06,3.32A2.76,2.76,0,0,1,1534.22,471.13Z"/><path class="cls-120" d="M1377.2,715.36a25,25,0,1,1,18.66,30.12A25.08,25.08,0,0,1,1377.2,715.36Z"/><path class="cls-121" d="M1510.82,730.13a3.28,3.28,0,1,1,2.44,3.94A3.29,3.29,0,0,1,1510.82,730.13Z"/><path class="cls-122" d="M1494.56,492a3.79,3.79,0,1,1,2.82,4.55A3.79,3.79,0,0,1,1494.56,492Z"/><path class="cls-123" d="M1418.51,459.43a2.86,2.86,0,1,1,5.57,1.31,2.86,2.86,0,0,1-5.57-1.31Z"/><path class="cls-124" d="M1392.87,599.79a6.18,6.18,0,1,1,4.61,7.43A6.17,6.17,0,0,1,1392.87,599.79Z"/><path class="cls-125" d="M1358.09,720a3.82,3.82,0,1,1,2.85,4.59A3.82,3.82,0,0,1,1358.09,720Z"/><path class="cls-126" d="M1208.67,680.9a6.77,6.77,0,1,1,5,8.14A6.76,6.76,0,0,1,1208.67,680.9Z"/><path class="cls-127" d="M1426.84,694.83a7.43,7.43,0,1,1,5.53,8.93A7.44,7.44,0,0,1,1426.84,694.83Z"/><path class="cls-128" d="M1436.52,768.92a4.28,4.28,0,1,1,3.19,5.15A4.29,4.29,0,0,1,1436.52,768.92Z"/><path class="cls-129" d="M1461,704.89a6.85,6.85,0,1,1,5.09,8.23A6.83,6.83,0,0,1,1461,704.89Z"/><path class="cls-130" d="M1358.52,536.44a4.58,4.58,0,1,1,3.41,5.51A4.59,4.59,0,0,1,1358.52,536.44Z"/><path class="cls-131" d="M1274.39,694.55a10.83,10.83,0,1,1,8.07,13A10.82,10.82,0,0,1,1274.39,694.55Z"/><path class="cls-132" d="M764.32,792.6A8.66,8.66,0,1,1,770.77,803,8.66,8.66,0,0,1,764.32,792.6Z"/><path class="cls-133" d="M392.23,654.67a4.58,4.58,0,1,1,3.41,5.5A4.58,4.58,0,0,1,392.23,654.67Z"/><path class="cls-134" d="M284.58,621.15a4.08,4.08,0,1,1,5.7-.92A4.08,4.08,0,0,1,284.58,621.15Z"/><path class="cls-135" d="M348.94,598.08a10,10,0,1,1,7.46,12A10,10,0,0,1,348.94,598.08Z"/><path class="cls-136" d="M1349.77,774.32a3.88,3.88,0,1,1,2.89,4.67A3.87,3.87,0,0,1,1349.77,774.32Z"/><path class="cls-137" d="M1309.66,769.7a3.25,3.25,0,1,1,2.42,3.91A3.24,3.24,0,0,1,1309.66,769.7Z"/><path class="cls-138" d="M497.34,694.1a6.24,6.24,0,1,1,4.64,7.51A6.24,6.24,0,0,1,497.34,694.1Z"/><path class="cls-139" d="M266.84,786a3.51,3.51,0,1,1,4.9-.79A3.5,3.5,0,0,1,266.84,786Z"/><path class="cls-140" d="M159.35,598.23a5.79,5.79,0,1,1,8.08-1.32A5.79,5.79,0,0,1,159.35,598.23Z"/><path class="cls-141" d="M253.64,757.88a4.52,4.52,0,1,1,6.31-1A4.51,4.51,0,0,1,253.64,757.88Z"/><path class="cls-142" d="M256,559.36a7.1,7.1,0,1,1,2.61,9.7A7.09,7.09,0,0,1,256,559.36Z"/><path class="cls-143" d="M311,504.1a6.2,6.2,0,1,1-7,5.35A6.2,6.2,0,0,1,311,504.1Z"/><path class="cls-144" d="M1275.49,747.7a3.52,3.52,0,1,1-4,3A3.52,3.52,0,0,1,1275.49,747.7Z"/><path class="cls-145" d="M1243.82,643.5a8.22,8.22,0,1,1-9.21,7.1A8.22,8.22,0,0,1,1243.82,643.5Z"/><path class="cls-146" d="M871.38,633.52A10.92,10.92,0,1,1,859.15,643,10.92,10.92,0,0,1,871.38,633.52Z"/><path class="cls-147" d="M1313,753.54a3.57,3.57,0,1,1-4,3.08A3.58,3.58,0,0,1,1313,753.54Z"/><path class="cls-148" d="M1347.44,793.64a9.59,9.59,0,1,1-7.31,11.43A9.61,9.61,0,0,1,1347.44,793.64Z"/><path class="cls-149" d="M232.52,625.58a3.1,3.1,0,1,1,1.14,4.24A3.12,3.12,0,0,1,232.52,625.58Z"/><path class="cls-150" d="M1318.56,675.93a3.66,3.66,0,1,1-4.1,3.15A3.65,3.65,0,0,1,1318.56,675.93Z"/><path class="cls-151" d="M1319.8,481.85a3.8,3.8,0,1,1-4.26,3.28A3.81,3.81,0,0,1,1319.8,481.85Z"/><path class="cls-152" d="M385.56,439.81a6.34,6.34,0,1,1-7.1,5.47A6.35,6.35,0,0,1,385.56,439.81Z"/><path class="cls-153" d="M294.06,425.09a4.35,4.35,0,1,1-4.87,3.75A4.35,4.35,0,0,1,294.06,425.09Z"/><path class="cls-154" d="M179.66,519a6.52,6.52,0,1,1,2.39,8.9A6.51,6.51,0,0,1,179.66,519Z"/><path class="cls-155" d="M553.4,591.55a7.61,7.61,0,1,1-8.51,6.57A7.61,7.61,0,0,1,553.4,591.55Z"/><path class="cls-156" d="M438.73,704.52a4.21,4.21,0,1,1-4.73,3.63A4.2,4.2,0,0,1,438.73,704.52Z"/><path class="cls-157" d="M599.19,725.17a9.28,9.28,0,1,1-10.39,8A9.27,9.27,0,0,1,599.19,725.17Z"/><path class="cls-158" d="M431.3,352.7a5.81,5.81,0,1,1-6.51,5A5.81,5.81,0,0,1,431.3,352.7Z"/><path class="cls-159" d="M212.38,443.79A10.42,10.42,0,1,1,216.2,458,10.41,10.41,0,0,1,212.38,443.79Z"/><path class="cls-160" d="M171.07,582.2a7.28,7.28,0,1,1,2.67,9.94A7.28,7.28,0,0,1,171.07,582.2Z"/><path class="cls-161" d="M186.42,554.13a5.06,5.06,0,1,1,1.87,6.91A5.08,5.08,0,0,1,186.42,554.13Z"/><path class="cls-162" d="M217.19,582.24a3.25,3.25,0,1,1,1.2,4.43A3.26,3.26,0,0,1,217.19,582.24Z"/><path class="cls-163" d="M1461.32,436.05a10.27,10.27,0,1,1-11.5,8.86A10.28,10.28,0,0,1,1461.32,436.05Z"/><path class="cls-164" d="M255.62,545.1a4,4,0,1,1,1.49,5.52A4.05,4.05,0,0,1,255.62,545.1Z"/><path class="cls-165" d="M232.29,545a3.16,3.16,0,1,1,1.16,4.31A3.17,3.17,0,0,1,232.29,545Z"/><path class="cls-166" d="M208.87,597.19a7.32,7.32,0,1,1,2.68,10A7.31,7.31,0,0,1,208.87,597.19Z"/><path class="cls-167" d="M161.74,579.93a5.14,5.14,0,1,1,1.88,7A5.14,5.14,0,0,1,161.74,579.93Z"/><path class="cls-168" d="M37.61,450.8a5.5,5.5,0,1,1,2,7.51A5.51,5.51,0,0,1,37.61,450.8Z"/><path class="cls-169" d="M181.81,444.65a2.64,2.64,0,1,1,1,3.61A2.64,2.64,0,0,1,181.81,444.65Z"/><path class="cls-170" d="M188,567.41a4.86,4.86,0,1,1,1.79,6.63A4.87,4.87,0,0,1,188,567.41Z"/><path class="cls-171" d="M133.23,523.45a4.46,4.46,0,1,1,1.65,6.09A4.47,4.47,0,0,1,133.23,523.45Z"/><path class="cls-172" d="M150.3,582.46a8.93,8.93,0,1,1,3.28,12.2A8.94,8.94,0,0,1,150.3,582.46Z"/><path class="cls-173" d="M179.79,615.65a14.66,14.66,0,1,1,5.38,20A14.65,14.65,0,0,1,179.79,615.65Z"/><path class="cls-174" d="M61,547a12,12,0,1,1,4.41,16.4A12,12,0,0,1,61,547Z"/></g></g></g></g></svg>