<svg xmlns="http://www.w3.org/2000/svg" viewBox="0 0 73.44 100"><defs><style>.cls-1{fill:#e26fab;}.cls-2{fill:#666766;}.cls-3{fill:#fdcc9a;}.cls-4{fill:#214295;}.cls-5{fill:#cccccb;stroke:#999;stroke-miterlimit:10;}</style></defs><title>Leading_Party2</title><g id="Layer_2" data-name="Layer 2"><g id="Layer_1-2" data-name="Layer 1"><path class="cls-1" d="M49,44.37a69.33,69.33,0,0,1-6,10.89H63.6A28.18,28.18,0,0,0,49,44.37Z"/><path class="cls-1" d="M9.84,55.26H30.39a34.28,34.28,0,0,1-5.1-11.17C18.56,46.25,13.06,50.24,9.84,55.26Z"/><rect class="cls-2" x="5.02" y="96.7" width="63.39" height="3.3" rx="0.73"/><path class="cls-1" d="M57.71,8.82,37.19,0a.56.56,0,0,0-.42,0L16.27,8.15a.55.55,0,0,0-.07,1l.92.51v2.62A1.65,1.65,0,0,0,17,15.5L15.4,26.72l2.12,8,1.88-6.57L18,15.42a1.65,1.65,0,0,0-.35-3.15V10l6.48,3.6.27.15a1.47,1.47,0,0,1,.63,1.21,1.51,1.51,0,0,1-.17.7A23.78,23.78,0,0,0,22.36,26.5c0,10.68,6.55,19.34,14.62,19.34S51.61,37.18,51.61,26.5A24.58,24.58,0,0,0,50.13,18c0-.12-.08-.22-.12-.33a.87.87,0,0,1-.07-.17,3.93,3.93,0,0,0-.18-.43,3.82,3.82,0,0,1-.11-.9A3.72,3.72,0,0,1,51,13.37l1.49-.78h0l5.3-2.78A.55.55,0,0,0,57.71,8.82Z"/><path class="cls-3" d="M47.49,28.58l.11-6s-.06-2-1.94-.81c0,0-6.67,3.84-8.94,4-2.28-.15-8.94-4-8.94-4-1.88-1.21-1.94.81-1.94.81l.11,6-1.79-.94C26,43.84,36.57,43.77,36.72,43.77s10.71.07,12.56-16.13Z"/><path class="cls-4" d="M35.88,51.63l-1.19,3.51h4.14l-1.19-3.51a4.18,4.18,0,0,0,3-2.56,11.23,11.23,0,0,1-7.86-.23A4.18,4.18,0,0,0,35.88,51.63Z"/><path class="cls-5" d="M64.58,95.55H9.68A1.75,1.75,0,0,1,7.93,93.8L.5,57.09a1.75,1.75,0,0,1,1.75-1.75H71.19a1.75,1.75,0,0,1,1.75,1.75L66.33,93.8A1.75,1.75,0,0,1,64.58,95.55Z"/><circle class="cls-4" cx="36.72" cy="75.44" r="2.53"/></g></g></svg>